<?xml version="1.0" standalone="no"?>
<!DOCTYPE svg PUBLIC "-//W3C//DTD SVG 1.1//EN" "http://www.w3.org/Graphics/SVG/1.1/DTD/svg11.dtd" >
<svg xmlns="http://www.w3.org/2000/svg">
<metadata>
Created by FontPrep 20130207 at Tue Jan  6 10:23:52 2015
 By Caroline Artz
Copyright (c) 2012, Julia Petretta (julia.petretta@googlemail.com), with Reserved Font Name 'Text Me'
</metadata>
<defs>
<font id="5cdc6cdbb395cef1310bd7ca4ace5946" horiz-adv-x='1024' >
  <font-face 
    font-family="TextMeOne-Regular"
    font-weight="400"
    font-stretch="normal"
    units-per-em="2048"
    panose-1="0 0 0 0 0 0 0 0 0 0"
    ascent="1638"
    descent="-410"
    x-height="1024"
    cap-height="1434"
    bbox="-156 -551 2208 1950"
    underline-thickness="102"
    underline-position="-102"
    unicode-range="U+000D-FB02"
  />
<missing-glyph horiz-adv-x="614" 
 />
    <glyph glyph-name="fi" unicode="fi" horiz-adv-x="1105" 
d="M890 1427q-28 0 -36 -6t-8 -28v-21q0 -23 8 -29t37 -6t37 6t8 29v21q0 20 -9 27t-37 7zM889 1499q75 0 97 -19t22 -81v-27q0 -70 -23 -88t-97 -18t-93 18q-20 18 -21 88v27q0 66 20 83t95 17zM874 1026h35q25 0 33 -10t8 -31v-944q0 -17 -12 -29t-29 -12h-35
q-16 0 -28 11t-12 30v944q0 27 11 34t29 7zM94 1024h49q17 0 29 -12t12 -29v-8q0 -17 -11 -29t-30 -12h-49q-18 0 -29 12t-12 29v8q-1 17 11 29t30 12zM324 1024h217q16 0 27 -12t12 -29v-8q0 -17 -12 -29t-27 -12h-217l-2 -895q0 -39 -39 -39h-17q-41 0 -41 39l2 1143
q-2 152 79 234t222 83q92 0 93 -41v-16q1 -14 -11 -26t-28 -13h-52q-96 0 -151 -57t-55 -166v-156z" />
    <glyph glyph-name="fl" unicode="fl" horiz-adv-x="1290" 
d="M872 1495h17q39 0 39 -39v-1141q0 -219 186 -219h33q15 0 27 -12t12 -27v-16q0 -41 -74 -41q-139 0 -211 80t-70 233v1143q0 39 41 39zM94 1024h49q17 0 29 -12t12 -29v-8q0 -17 -11 -29t-30 -12h-49q-18 0 -29 12t-12 29v8q-1 17 11 29t30 12zM324 1024h217q16 0 27 -12
t12 -29v-8q0 -17 -12 -29t-27 -12h-217l-2 -895q0 -39 -39 -39h-17q-41 0 -41 39l2 1143q-2 152 79 234t222 83q92 0 93 -41v-16q1 -14 -11 -26t-28 -13h-52q-96 0 -151 -57t-55 -166v-156z" />
    <glyph glyph-name=".notdef" horiz-adv-x="614" 
 />
    <glyph glyph-name=".null" horiz-adv-x="0" 
 />
    <glyph glyph-name="nonmarkingreturn" horiz-adv-x="681" 
 />
    <glyph glyph-name="CR" unicode="&#xd;" horiz-adv-x="614" 
 />
    <glyph glyph-name="space" unicode=" " horiz-adv-x="1024" 
 />
    <glyph glyph-name="exclam" unicode="!" horiz-adv-x="438" 
d="M174 121v-21q0 -22 8 -28t37 -6t37 6t8 28v21q0 20 -9 27q-9 8 -37 8t-36 -6t-8 -29zM217 227q75 0 97 -19t22 -81v-27q0 -70 -23 -88t-97 -18t-93 18q-20 18 -21 88v27q0 66 20 83t95 17zM209 1434h20q17 0 29 -12t12 -27v-981q0 -16 -12 -28t-29 -11h-20q-39 0 -39 39
v981q0 39 39 39z" />
    <glyph glyph-name="quotedbl" unicode="&#x22;" horiz-adv-x="395" 
d="M111 1495h20q41 0 41 -39v-287q0 -39 -41 -39h-20q-39 0 -39 39v287q0 39 39 39zM270 1495h23q39 0 39 -39v-287q0 -39 -39 -39h-23q-39 0 -39 39v287q0 39 39 39z" />
    <glyph glyph-name="numbersign" unicode="#" horiz-adv-x="1230" 
d="M690 549l144 377h-265l-143 -377h264zM238 1026h262l145 381q14 27 37 27h23q23 0 35 -16t3 -38l-135 -354h262l148 381q14 27 37 27h22q21 0 33 -16t4 -38l-135 -354h160q39 0 39 -41v-18q0 -41 -39 -41h-199l-143 -377h211q16 0 27 -12t12 -29v-19q1 -16 -11 -28
t-28 -12h-250l-160 -422q-12 -27 -41 -27h-22q-20 0 -29 16q-8 16 -2 37l149 396h-266l-160 -422q-12 -27 -39 -27h-20q-23 0 -33 16t-4 37l152 396h-179q-16 0 -27 12t-11 28v19q0 16 11 28t27 13h215l144 377h-225q-16 0 -28 12q-11 12 -11 29v18q0 16 11 29q12 12 28 12z
" />
    <glyph glyph-name="dollar" unicode="$" horiz-adv-x="1148" 
d="M308 1251q-64 -67 -64 -155t64 -155t188 -130v518q-123 -12 -188 -78zM598 643v-543q135 16 203 84q67 68 67 174t-76 165q-76 60 -135 89t-59 31zM535 1495h24q39 0 39 -39v-24q152 -14 253 -114t110 -267q1 -17 -11 -29t-28 -12h-19q-39 0 -41 47q-8 121 -80 191
t-184 81v-567q14 -8 43 -21q160 -77 244 -165t84 -220q1 -132 -95 -233q-96 -100 -276 -121v-211q0 -17 -11 -29t-28 -12h-24q-16 0 -28 12q-11 12 -11 29v207q-164 6 -287 103t-129 300q0 15 11 29t28 14h18q41 0 41 -32q0 -86 31 -151t82 -97q96 -63 205 -68v598
q-190 96 -274 184t-85 219q0 132 94 226t265 109v24q0 39 39 39z" />
    <glyph glyph-name="percent" unicode="%" horiz-adv-x="1245" 
d="M420 1235q0 100 -110 100t-109 -100v-240q-1 -100 109 -100t110 100v240zM102 1223q0 211 208 211t208 -211v-215q0 -211 -208 -211t-208 211v215zM1044 438q0 100 -110 100t-109 -100v-239q0 -101 110 -101t109 101v239zM727 426q0 211 208 211t208 -211v-215
q0 -211 -208 -211t-208 211v215zM760 1499h24q48 0 39 -47l-268 -1460q-6 -33 -39 -33h-20q-20 0 -32 13q-11 13 -9 34l264 1460q6 33 41 33z" />
    <glyph glyph-name="ampersand" unicode="&#x26;" horiz-adv-x="1148" 
d="M680 756h334q25 0 24 -41v-19q0 -39 -24 -39h-334q-25 0 -25 39v19q0 41 25 41zM199 442v-98q0 -256 303 -256q111 0 200 35q16 6 25 -4l45 -56q10 -12 -2 -16q-119 -53 -268 -53q-399 0 -400 352v80q0 54 3 70t7 39q3 23 8 35t13 31t38 47t130 85q16 8 23 0l38 -57
q6 -4 0 -8q-117 -58 -140 -108t-23 -118zM488 1434q144 0 230 -85t87 -208q0 -205 -268 -375h-13l-41 61l-2 9l2 4q98 59 144 104q82 84 82 182q1 98 -57 154t-154 57q-96 0 -154 -53q-58 -54 -59 -154q0 -100 159 -321l555 -778q20 -31 -10 -31l-96 2q-16 0 -27 17
q-41 69 -250 358t-258 360q-176 255 -176 389t81 221t225 87z" />
    <glyph glyph-name="quotesingle" unicode="'" horiz-adv-x="286" 
d="M131 1495h21q39 0 38 -39v-287q0 -39 -38 -39h-21q-17 0 -29 12t-12 27v287q0 16 12 28q13 11 29 11z" />
    <glyph glyph-name="parenleft" unicode="(" horiz-adv-x="669" 
d="M600 1413q16 0 28 -12t11 -29v-18q0 -16 -11 -28t-28 -13q-150 0 -268 -105q-66 -59 -106 -189t-40 -317q0 -606 418 -606q39 0 39 -39v-18q0 -41 -39 -41q-516 0 -516 708t512 707z" />
    <glyph glyph-name="parenright" unicode=")" horiz-adv-x="741" 
d="M131 1413q512 1 512 -707t-516 -708q-39 0 -39 41v18q0 39 39 39q418 0 418 606q0 416 -197 547q-94 63 -217 64q-16 0 -28 12q-11 12 -11 29v18q0 16 11 29q12 12 28 12z" />
    <glyph glyph-name="asterisk" unicode="*" horiz-adv-x="724" 
d="M356 1264h-22l-17 -17v-18l19 -21h18l21 19v16l-17 19q-2 0 -2 2zM186 1030q-14 0 -36 31v-2q-25 25 0 57l77 74h-106q-16 0 -28 12q-11 12 -11 29v18q0 39 39 39h100l-74 74q-31 31 15 70q25 25 57 0l76 -80v104q0 16 12 28t29 11h18q16 0 28 -11t13 -28v-104l76 75
q17 15 31 15t39 -27q25 -33 0 -57l-72 -70h100q39 0 39 -39v-18q0 -17 -11 -29t-28 -12h-114l80 -84q14 -16 14 -30t-27 -40q-33 -25 -57 0l-70 72v-94q0 -16 -12 -28t-29 -11h-18q-16 0 -29 11q-12 11 -12 28v106l-76 -76q-19 -14 -33 -14z" />
    <glyph glyph-name="plus" unicode="+" horiz-adv-x="980" 
d="M92 750h350v352q0 39 39 39h17q39 -4 43 -39v-352h350q39 0 39 -39v-19q0 -16 -11 -28t-28 -13h-350v-350q-4 -41 -41 -41h-21q-37 4 -37 41v350h-350q-18 1 -30 13t-11 28v19q0 39 41 39z" />
    <glyph glyph-name="comma" unicode="," horiz-adv-x="223" 
d="M160 285h26q39 0 33 -39q-35 -156 -117 -498q-6 -27 -39 -27h-24q-41 0 -35 39l117 498q8 27 39 27z" />
    <glyph glyph-name="hyphen" unicode="-" horiz-adv-x="718" 
d="M104 709h510q41 0 41 -39v-21q0 -39 -41 -39h-510q-41 0 -41 39v21q0 39 41 39z" />
    <glyph glyph-name="period" unicode="." horiz-adv-x="409" 
d="M156 121v-21q0 -22 8 -28t37 -6t37 6t8 28v21q0 20 -9 27q-9 8 -37 8t-36 -6t-8 -29zM199 227q75 0 97 -19t21 -81v-27q-1 -70 -23 -88t-96 -18t-94 18t-20 88v27q0 66 20 83q21 17 95 17z" />
    <glyph glyph-name="slash" unicode="/" horiz-adv-x="620" 
d="M580 1432q35 0 34 -35q0 -8 -4 -19l-534 -1351q-16 -27 -31 -27h-25q-23 0 -36 18t-2 35l532 1352q14 27 39 27h27z" />
    <glyph glyph-name="zero" unicode="0" horiz-adv-x="1069" 
d="M530 1335h-32q-121 -1 -207 -67t-86 -230v-624q0 -319 297 -320h24q297 0 297 320v624q0 164 -86 230t-207 67zM502 1434h24q168 0 283 -94t115 -296v-632q0 -204 -111 -308t-293 -108h-12q-184 4 -295 107t-111 309v632q0 135 60 226q107 164 340 164z" />
    <glyph glyph-name="one" unicode="1" horiz-adv-x="784" 
d="M561 1346v-1303q0 -33 -2 -38t-20 -5h-60q-14 0 -17 7t-3 20v1286l-353 -279q-27 -20 -45 4l-18 23q-8 10 -8 22t18 27l353 287q47 37 94 37h4q57 -2 57 -88z" />
    <glyph glyph-name="two" unicode="2" horiz-adv-x="1024" 
d="M502 1434q178 0 274 -94t96 -246q0 -160 -191 -430q-85 -120 -286 -353l-61 -73q-51 -60 -79 -98t-34 -44q4 2 12 2h629q41 0 41 -39v-18q0 -41 -41 -41h-631q-33 0 -52 4t-39 28q-19 24 -19 66t88 152l86 98q18 22 56 66t81 100l55 66q12 16 91 115t97 133q19 34 41 72
q58 98 56 183q0 129 -80 191t-190 61q-197 0 -273 -184q-12 -25 -36 -25h-19q-41 0 -41 37q0 10 2 15q41 120 141 188t226 68z" />
    <glyph glyph-name="three" unicode="3" horiz-adv-x="1095" 
d="M197 360q6 0 10 -22q63 -238 313 -238q137 0 225 72t89 212q0 140 -90 227t-267 87h-121q-20 0 -23 4t-3 19v46q0 13 2 21t26 9h115q162 1 249 69t87 185t-79 201t-218 83q-90 0 -163 -43t-89 -133q-2 -14 -16 -14h-68q-18 0 -12 35q18 110 116 182t232 72
q193 0 294 -110t101 -269q0 -99 -52 -183t-159 -124q124 -42 182 -136t58 -206q0 -217 -141 -318q-121 -88 -284 -88t-265 84t-135 231q-4 18 -5 30q0 11 21 11l61 4h9z" />
    <glyph glyph-name="four" unicode="4" horiz-adv-x="1136" 
d="M684 557v743q-68 -100 -234 -356t-257 -387h491zM156 459q-88 -1 -88 75q0 18 18 44l532 798q39 58 84 58q80 0 80 -88v-789h234q37 0 37 -39v-18q0 -41 -37 -41h-234v-418q0 -41 -41 -41h-18q-39 0 -39 41v418h-528z" />
    <glyph glyph-name="five" unicode="5" horiz-adv-x="1163" 
d="M139 268q0 37 35 37h27q25 0 37 -24q41 -100 124 -145q84 -44 179 -44q151 0 245 87t95 259v27q-1 191 -27 243t-57 93q-61 82 -215 82q-52 1 -98 -13t-77 -31t-60 -42t-49 -39t-46 -15q-74 0 -74 91v520q0 74 64 80h659q17 0 29 -12t12 -27v-21q0 -16 -12 -27t-29 -12
h-622v-481q29 35 117 82t178 47q89 1 155 -21t107 -52t80 -99t51 -153t12 -113v-105q0 -227 -125 -338t-313 -110q-125 0 -237 66t-163 194q-2 8 -2 16z" />
    <glyph glyph-name="six" unicode="6" horiz-adv-x="1196" 
d="M596 801q-170 0 -320 -146v-266q0 -137 92 -216t201 -79h19q127 0 215 79t88 200v159q0 123 -86 196t-209 73zM576 1335q-126 0 -212 -81q-87 -81 -88 -234v-246q58 55 146 90t174 35q172 0 283 -98t110 -266v-162q-1 -162 -113 -271t-288 -108h-17q-157 0 -275 108
t-118 281v639q0 199 114 305q114 107 282 107t270 -69q104 -69 135 -196q4 -40 -37 -47l-22 -2q-31 0 -39 31q-23 88 -101 136t-204 48z" />
    <glyph glyph-name="seven" unicode="7" horiz-adv-x="929" 
d="M115 1434h686q74 0 73 -66q-2 -37 -22 -76l-600 -1269q-10 -23 -37 -23h-25q-41 0 -40 37q0 8 4 20l608 1276h-647q-17 -1 -29 11t-12 28v23q0 15 12 27t29 12z" />
    <glyph glyph-name="eight" unicode="8" horiz-adv-x="1153" 
d="M260 1066q0 -128 70 -207t222 -79t224 76t72 206t-81 200t-216 73q-133 -3 -212 -72t-79 -197zM551 682q-186 0 -257 -85t-71 -225t89 -207t240 -67t242 67t91 206q0 311 -334 311zM946 1061q0 -103 -44 -191t-142 -131q113 -35 169 -135t56 -244t-97 -248
q-97 -105 -337 -112q-428 10 -428 373q0 133 53 232t164 134q-178 78 -178 322q0 184 104 276t285 97q183 -4 289 -96t106 -277z" />
    <glyph glyph-name="nine" unicode="9" horiz-adv-x="1110" 
d="M557 1335h-16q-127 0 -214 -79t-87 -201v-166q0 -121 92 -192t228 -71t294 140v272q0 139 -93 218t-204 79zM541 1434h14q160 0 279 -106t118 -284v-659q0 -195 -112 -290t-296 -95q-183 0 -293 90t-110 256v25q1 18 13 29t28 12h19q16 0 28 -12t13 -29v-21
q0 -122 83 -186t221 -64t223 69t85 218v258q-121 -117 -299 -117t-296 96t-118 263v168q0 163 113 271t287 108z" />
    <glyph glyph-name="colon" unicode=":" horiz-adv-x="407" 
d="M198 831q-28 0 -36 -6t-8 -28v-21q0 -22 8 -28t37 -6t37 6t8 28v21q-1 20 -10 27q-8 7 -36 7zM154 121v-21q0 -22 8 -28t37 -6t37 6t8 28v21q-1 20 -10 27q-8 8 -36 8t-36 -6t-8 -29zM197 227q75 0 97 -19t21 -81v-27q-1 -70 -23 -88t-96 -18t-94 18t-20 88v27
q0 66 20 83q21 17 95 17zM197 903q75 0 97 -19t21 -81v-27q-1 -70 -23 -88t-96 -18t-94 18t-20 88v27q0 66 20 83q21 17 95 17z" />
    <glyph glyph-name="semicolon" unicode=";" horiz-adv-x="350" 
d="M164 674v-21q0 -23 8 -29t37 -6t37 6t8 29v21q0 20 -9 27t-37 7t-36 -6t-8 -28zM207 780q75 0 97 -19t22 -81v-27q0 -70 -23 -88t-97 -18t-93 18q-20 18 -21 88v27q0 66 20 83t95 17zM160 285h26q39 0 33 -39q-35 -156 -117 -498q-6 -27 -39 -27h-24q-41 0 -35 39
l117 498q8 27 39 27z" />
    <glyph glyph-name="less" unicode="&#x3c;" horiz-adv-x="1171" 
d="M1006 1038q12 0 22 -6q29 -8 29 -46t-29 -48l-809 -283l813 -270q29 -10 29 -45q0 -10 -9 -33q-14 -37 -69 -16l-840 289q-41 16 -41 74t43 75l838 303q11 6 23 6z" />
    <glyph glyph-name="equal" unicode="=" horiz-adv-x="1185" 
d="M195 659h798q39 0 39 -38v-19q0 -16 -11 -28t-28 -13h-798q-18 0 -30 12q-11 12 -11 29v19q0 38 41 38zM195 913h798q39 0 39 -39v-18q0 -41 -39 -41h-798q-41 0 -41 41v18q0 39 41 39z" />
    <glyph glyph-name="greater" unicode="&#x3e;" horiz-adv-x="1163" 
d="M1061 654q0 -58 -41 -74l-840 -289q-16 -6 -38 -6q-34 0 -40 55q0 35 29 45l813 270l-809 283q-29 10 -29 48t29 46q11 6 23 6t22 -6l838 -303q43 -17 43 -75z" />
    <glyph glyph-name="question" unicode="?" horiz-adv-x="905" 
d="M348 121v-21q0 -22 8 -28t37 -6t37 6t8 28v21q0 20 -9 27q-9 8 -37 8t-36 -6t-8 -29zM391 227q75 0 97 -19t22 -81v-27q0 -70 -23 -88t-97 -18t-93 18q-20 18 -21 88v27q0 66 20 83t95 17zM424 1405q184 0 274 -108q90 -109 90 -249t-92 -238t-245 -120q-2 0 -5 2v-293
q0 -39 -38 -39h-19q-41 0 -41 39v303q0 48 20 64t74 20q106 10 178 80q71 70 70 181q0 111 -68 185t-198 75q-184 0 -248 -148q-12 -25 -37 -24h-18q-41 0 -41 32q0 8 2 19q41 113 134 166t208 53z" />
    <glyph glyph-name="at" unicode="@" horiz-adv-x="985" 
d="M629 662q-1 131 -141 131t-140 -131v-267q0 -133 141 -133q92 0 140 72v328zM482 1085q186 0 316 -98t130 -289v-344q0 -76 -47 -126t-112 -50t-116 45q-72 -59 -175 -59t-167 59q-63 59 -63 172v267q0 113 66 172t174 59t175 -60t66 -171v-328q0 -20 14 -36t36 -15
q22 0 37 19t15 40v313q0 172 -98 252q-99 80 -245 80t-248 -77t-103 -210v-352q-1 -129 105 -211t237 -82t256 62q29 -70 33 -94q-131 -66 -305 -66t-298 108t-124 281v356q0 177 127 280t314 103z" />
    <glyph glyph-name="A" unicode="A" horiz-adv-x="1204" 
d="M408 631h354q16 0 28 -11t13 -30v-19q0 -18 -12 -29t-29 -12h-354q-39 0 -39 41v19q0 41 39 41zM1137 41q0 -41 -41 -41h-25q-27 0 -39 27l-446 1271l-449 -1271q-12 -27 -39 -27h-24q-41 0 -41 41q0 8 2 14l469 1325q18 56 78 56t82 -58l471 -1323q2 -6 2 -14z" />
    <glyph glyph-name="B" unicode="B" horiz-adv-x="1040" 
d="M412 1331h-205v-1231h319q360 0 361 293q1 121 -99 210t-280 89h-137q-23 0 -33 1t-24 13t-13 38q0 28 22 36t60 8h129q170 0 243 84t73 191t-70 178q-84 90 -346 90zM193 1434h221q246 0 358 -68q158 -96 158 -307q-4 -99 -56 -187t-165 -129q102 -23 169 -85
q68 -62 90 -126t22 -151q0 -88 -43 -178q-42 -90 -122 -137q-117 -66 -331 -66h-297q-53 0 -73 19q-19 19 -20 75v1249q0 53 18 72t71 19z" />
    <glyph glyph-name="C" unicode="C" horiz-adv-x="1155" 
d="M578 1446q54 0 110 -9q55 -9 122 -39t120 -76t94 -127t51 -187q0 -45 -41 -45h-18q-37 0 -41 36q-10 86 -43 152q-33 67 -76 101q-44 34 -112 63t-139 29t-117 -9q-46 -8 -103 -35q-57 -26 -100 -70t-73 -124t-30 -184v-402q0 -104 33 -184t79 -124t126 -79t166 -35
t146 16t120 54q127 80 127 297q0 35 11 45t30 10h16q41 0 41 -41q0 -125 -40 -219t-93 -142q-52 -48 -144 -84t-174 -36t-144 10q-60 10 -135 45t-131 88t-95 151t-39 222v416q0 129 38 227q38 99 92 151t127 86t129 43t110 9z" />
    <glyph glyph-name="D" unicode="D" horiz-adv-x="1179" 
d="M498 1333h-310v-1233h322q195 0 287 92t92 302v411q0 225 -82 327t-309 101zM166 1434h332q303 0 403 -148q51 -74 69 -163t19 -224v-393q1 -262 -109 -384t-370 -122h-342q-82 0 -82 84v1268q0 46 18 64t62 18z" />
    <glyph glyph-name="E" unicode="E" horiz-adv-x="1024" 
d="M352 795h439q18 -1 29 -13t11 -28v-19q0 -41 -40 -41h-439q-41 0 -41 41v19q-1 16 11 28t30 13zM209 1434h715q16 0 28 -12t13 -29v-19q-1 -18 -13 -29t-28 -12h-695v-1233h695q16 0 28 -11t13 -30v-18q-1 -17 -13 -29t-28 -12h-717q-49 0 -65 22q-15 22 -15 60v1272
q1 40 19 60t63 20z" />
    <glyph glyph-name="F" unicode="F" horiz-adv-x="991" 
d="M309 795h461q16 -1 28 -13t13 -28v-19q0 -18 -12 -29t-29 -12h-461q-39 0 -39 41v19q0 16 12 28t27 13zM203 1434h682q18 0 29 -12t12 -29v-19q0 -41 -41 -41h-658v-1292q0 -17 -11 -29t-30 -12h-20q-18 0 -30 12q-11 12 -11 29v1311q1 38 15 60t63 22z" />
    <glyph glyph-name="G" unicode="G" horiz-adv-x="1189" 
d="M578 1446q54 0 110 -9q55 -9 122 -39t120 -76t94 -127t51 -187q0 -45 -41 -45h-18q-37 0 -41 36q-10 86 -43 152q-33 67 -76 101q-44 34 -112 63t-139 29t-117 -9q-46 -8 -103 -35q-57 -26 -100 -70t-73 -124t-30 -184v-402q0 -104 31 -184t74 -124t101 -71t104 -35
t90 -8q45 0 90 7t102 33t100 68t73 118t30 176v118h-338q-41 0 -41 41v19q0 16 11 28t30 13h356q82 0 82 -88v-133q0 -125 -38 -220q-38 -94 -91 -146q-54 -52 -148 -93t-222 -41t-220 45q-94 45 -148 98t-91 151t-37 222v416q0 129 38 227q38 99 92 151t127 86t129 43
t110 9z" />
    <glyph glyph-name="H" unicode="H" horiz-adv-x="1120" 
d="M276 805h529q17 0 29 -12t12 -29v-21q0 -16 -12 -28t-29 -13h-529q-16 0 -28 12t-12 29v21q0 16 12 28t28 13zM135 1434h19q18 0 29 -12t12 -29v-1352q1 -17 -11 -29t-30 -12h-19q-16 0 -29 12q-12 12 -12 29v1352q0 17 12 29t29 12zM924 1434h18q18 0 30 -12t11 -29
v-1352q0 -17 -11 -29t-30 -12h-18q-16 0 -29 12q-12 12 -12 29v1352q1 17 13 29t28 12z" />
    <glyph glyph-name="I" unicode="I" horiz-adv-x="409" 
d="M193 1434h18q17 0 29 -12t12 -29v-1352q0 -17 -12 -29t-29 -12h-18q-18 0 -30 12q-11 12 -11 29v1352q0 17 12 29t29 12z" />
    <glyph glyph-name="J" unicode="J" horiz-adv-x="997" 
d="M68 264q0 49 68 49q15 0 26 -24q52 -131 170 -166q84 -23 145 -23q295 0 295 344v887h-620q-39 0 -39 41v21q-1 17 11 29t28 12h641q82 0 81 -76v-912q0 -206 -105 -326t-292 -120q-135 0 -245 60t-160 190q-4 8 -4 14z" />
    <glyph glyph-name="K" unicode="K" horiz-adv-x="1083" 
d="M950 1434h23q18 0 31 -13q18 -20 4 -47l-359 -643l385 -672q6 -12 6 -22q0 -37 -41 -37h-22q-23 0 -31 12l-352 617l-311 -574q-37 -61 -82 -61q-78 0 -78 82v1317q0 16 11 28t30 13h20q18 0 30 -12t11 -29v-1229l406 741l291 516q8 13 28 13z" />
    <glyph glyph-name="L" unicode="L" horiz-adv-x="1021" 
d="M145 1434h21q16 0 28 -12t13 -29v-1293h684q39 0 39 -41v-18q0 -17 -11 -29t-28 -12h-703q-84 0 -84 88v1305q0 17 12 29t29 12z" />
    <glyph glyph-name="M" unicode="M" horiz-adv-x="1331" 
d="M1102 1440q34 0 58 -22t24 -66v-1311q0 -17 -12 -29t-29 -12h-19q-18 0 -29 12t-12 29v1219l-356 -881q-23 -53 -74 -60q-59 0 -84 58l-376 891v-1227q-1 -17 -13 -29t-28 -12h-21q-16 0 -28 12q-11 12 -11 29v1311q0 88 80 88q55 0 82 -62l393 -927l373 927q29 62 82 62
z" />
    <glyph glyph-name="N" unicode="N" 
d="M1098 76q0 -80 -90 -80q-43 0 -72 45l-727 1247v-1247q0 -17 -12 -29t-29 -12h-23q-16 0 -27 12t-12 29v1313q0 84 76 84q55 0 86 -49q395 -655 727 -1248v1252q-1 16 11 28t30 13h21q18 0 29 -12t12 -29v-1317z" />
    <glyph glyph-name="O" unicode="O" horiz-adv-x="1241" 
d="M601 1333q-46 0 -91 -7t-103 -33t-102 -67q-43 -42 -73 -121t-29 -183v-402q-1 -104 29 -184t74 -124t102 -71q92 -43 194 -43q103 0 177 35q75 35 118 79t73 124t29 184v402q0 104 -30 183q-31 79 -74 121t-101 68t-103 32q-44 7 -90 7zM1100 930v-416q0 -129 -38 -227
q-38 -97 -92 -151t-148 -96t-223 -42q-130 0 -223 45t-147 98q-53 53 -90 151t-37 222v416q0 129 38 225q38 95 91 147t127 84q168 71 359 38q57 -9 130 -42t126 -85t90 -147t37 -220z" />
    <glyph glyph-name="P" unicode="P" horiz-adv-x="1019" 
d="M201 1434h317q143 0 264 -78q62 -41 102 -119t40 -184q0 -162 -94 -272t-328 -109h-135q-18 0 -30 12q-11 12 -11 29v18q0 41 41 41h110q223 0 289 94q55 78 55 189q0 145 -93 211t-220 65h-295v-1290q0 -17 -12 -29t-29 -12h-20q-16 0 -29 12q-12 12 -12 29v1302
q0 53 18 72q19 19 72 19z" />
    <glyph glyph-name="Q" unicode="Q" horiz-adv-x="1181" 
d="M203 520q-1 -104 29 -184t74 -124t119 -79t177 -35q162 0 264 86l-229 273q-23 25 -23 43t45 18h33q18 0 33 -14l209 -244q66 104 65 260v402q0 104 -30 184q-54 139 -174 194q-92 43 -166 43t-120 -8q-117 -20 -204 -105q-43 -44 -73 -124t-29 -184v-402zM602 1446
q56 0 114 -10t130 -45t126 -88t91 -151t37 -222v-416q0 -203 -94 -336l110 -127q12 -16 12 -28q0 -23 -30 -23h-54q-16 0 -30 14l-78 90q-133 -106 -334 -106q-133 0 -226 45t-147 98q-53 53 -90 151t-37 222v416q0 129 38 227q38 97 91 151t126 87t131 42t114 9z" />
    <glyph glyph-name="R" unicode="R" horiz-adv-x="1001" 
d="M199 1434h280q496 0 496 -390q0 -152 -96 -270t-304 -117h-22l442 -581q25 -37 25 -45q0 -31 -29 -31h-41q-27 0 -39 16l-473 623q-23 33 -22 53q0 66 71 66h91q86 0 147 28t90 74q57 88 57 182q0 289 -395 289h-262v-1290q0 -17 -11 -29t-30 -12h-20q-18 0 -30 12
q-11 12 -11 29v1296q0 55 17 76q18 21 69 21z" />
    <glyph glyph-name="S" unicode="S" horiz-adv-x="1140" 
d="M969 999q-15 -1 -27 11t-14 28q-6 156 -104 227t-241 71q-142 0 -225 -68q-82 -68 -82 -167t58 -159q80 -80 318 -173t323 -196q65 -78 65 -223t-117 -249q-118 -103 -335 -103q-162 0 -305 88q-76 47 -124 132t-53 196q0 43 41 43h19q37 0 41 -39q4 -90 45 -157t102 -99
q119 -64 261 -64t234 75q91 75 91 189t-66 168q-66 56 -147 95q-80 39 -272 116q-147 66 -214 151t-67 217t109 230q109 99 296 99t315 -100t136 -296q0 -16 -12 -29t-29 -14h-20z" />
    <glyph glyph-name="T" unicode="T" horiz-adv-x="1024" 
d="M51 1434h910q18 0 29 -12t11 -29v-23q0 -37 -40 -37h-910q-41 0 -41 37v23q0 17 12 29t29 12zM494 1278h20q41 0 41 -39v-1198q0 -17 -11 -29t-30 -12h-20q-18 0 -30 12q-11 12 -11 29v1198q0 39 41 39z" />
    <glyph glyph-name="U" unicode="U" horiz-adv-x="1150" 
d="M983 1434h21q16 0 28 -12t12 -29v-879q0 -147 -49 -255t-127 -161q-143 -100 -293 -100h-24q-150 0 -297 100q-78 53 -126 161t-48 255v879q0 16 11 28t30 13h20q17 0 29 -12t12 -29v-879q0 -121 39 -208t103 -130q111 -74 231 -78h18q117 4 230 80q61 41 100 128t39 208
v879q0 17 12 29t29 12z" />
    <glyph glyph-name="V" unicode="V" horiz-adv-x="1128" 
d="M1030 1434h25q41 0 41 -41q0 -8 -2 -15l-467 -1325q-17 -55 -79 -55t-83 57l-471 1323q-2 6 -2 15q0 41 41 41h24q25 0 39 -27l449 -1278l446 1278q12 27 39 27z" />
    <glyph glyph-name="W" unicode="W" horiz-adv-x="1591" 
d="M1495 1434h23q23 0 34 -18t4 -34l-366 -1316q-20 -68 -85 -68t-83 68l-252 901l-252 -906q-23 -63 -83 -63t-83 63l-387 1319q-2 8 -2 18t9 23q9 12 32 13h21q25 0 38 -29l373 -1266l264 944q16 57 72 57t70 -59q43 -156 132 -470t132 -470l350 1262q4 11 16 21t23 10z
" />
    <glyph glyph-name="X" unicode="X" horiz-adv-x="1001" 
d="M856 1434h23q25 0 35 -20t-1 -42v2l-346 -631q-2 -2 -7 -10t-9 -12l12 -16l371 -646q6 -10 6 -20q0 -11 -8 -25t-33 -14h-25q-23 0 -30 12l-355 615q-20 -35 -162 -263t-214 -346q-14 -18 -35 -18h-25q-27 0 -37 20t2 43l402 642v-3q8 16 14 23q-8 8 -10 14l-424 631
q-6 10 -6 20q0 42 41 44h22q20 0 35 -19l402 -596l329 602q8 13 33 13z" />
    <glyph glyph-name="Y" unicode="Y" horiz-adv-x="892" 
d="M-10 1393q0 39 41 41h24q20 0 35 -19l348 -598l330 604q8 13 33 13h22q25 0 33 -16t8 -25q0 -10 -6 -21v2l-346 -631q-16 -25 -23 -30v-672q0 -17 -12 -29t-28 -12h-21q-16 0 -29 12q-12 12 -12 29v674q-10 10 -18 24l-373 633q-6 10 -6 21z" />
    <glyph glyph-name="Z" unicode="Z" horiz-adv-x="1130" 
d="M88 76q0 27 33 76v2l745 1179h-762q-16 -1 -28 11t-13 30v19q1 16 13 28t28 13h799q86 0 86 -72q0 -37 -28 -74v2l-7 -6l2 -4l-749 -1180h805q16 0 28 -11t13 -30v-18q-1 -17 -13 -29t-28 -12h-842q-82 0 -82 76z" />
    <glyph glyph-name="bracketleft" unicode="[" horiz-adv-x="819" 
d="M299 1432h287q39 0 39 -39v-21q0 -39 -39 -39h-264v-1235h264q39 0 39 -39v-18q0 -41 -39 -41h-285q-78 0 -78 78l-2 1272q0 82 78 82z" />
    <glyph glyph-name="backslash" unicode="\" horiz-adv-x="628" 
d="M31 1401h22q25 0 39 -27l510 -1321q2 -8 2 -17q0 -8 -8 -22t-31 -14h-20q-27 0 -39 27l-514 1321q-2 8 -2 17t9 23t32 13z" />
    <glyph glyph-name="bracketright" unicode="]" horiz-adv-x="825" 
d="M260 1432h287q78 0 78 -82v-1270q0 -80 -80 -80h-285q-39 0 -39 41v18q0 39 39 39h264v1235h-264q-39 0 -39 39v21q0 39 39 39z" />
    <glyph glyph-name="asciicircum" unicode="^" horiz-adv-x="829" 
d="M414 1499q62 0 75 -43l308 -866q8 -20 8 -33q0 -33 -39 -33h-25q-18 0 -30 33l-297 809l-295 -809q-10 -33 -31 -33h-25q-39 0 -38 33q0 12 8 33l305 866q14 43 76 43z" />
    <glyph glyph-name="underscore" unicode="_" horiz-adv-x="940" 
d="M113 80h702q17 0 29 -11t12 -28v-21q0 -16 -12 -27t-29 -11h-702q-16 0 -29 11q-12 11 -12 27v21q0 16 12 28q13 11 29 11z" />
    <glyph glyph-name="grave" unicode="`" horiz-adv-x="753" 
d="M201 1458q0 41 55 41q29 0 38 -9t23 -28l220 -278q10 -12 10 -24t-10 -26q-10 -16 -42 -16t-61 35l-219 272q-14 17 -14 33z" />
    <glyph glyph-name="a" unicode="a" horiz-adv-x="1032" 
d="M246 340q0 -242 234 -244q114 0 188 92q14 18 40 18t34 -27q8 -28 -5 -46q-88 -133 -253 -133t-250 88t-84 250v352q0 162 98 250t256 88t254 -89t96 -249v-450q0 -80 13 -110t53 -40l22 -6q31 -6 31 -27v-22q0 -35 -41 -35q-100 0 -137 59t-37 183v448q0 117 -72 179
q-72 63 -182 63t-185 -62q-74 -62 -73 -180v-350z" />
    <glyph glyph-name="b" unicode="b" horiz-adv-x="944" 
d="M469 930q-176 0 -270 -125v-469q-1 -117 71 -179q72 -63 183 -63t183 62t73 180v350q1 120 -65 182t-175 62zM141 1495h17q16 0 28 -11t13 -28v-530q106 102 266 102t251 -89t91 -249v-356q0 -162 -98 -250t-256 -88t-255 89t-98 249v1122q0 16 12 28t29 11z" />
    <glyph glyph-name="c" unicode="c" horiz-adv-x="1034" 
d="M498 1028q158 0 254 -89t96 -249q0 -39 -41 -39h-16q-39 0 -39 39q0 117 -72 178q-72 62 -182 62t-184 -62q-73 -62 -72 -180v-352q0 -117 72 -179q72 -63 184 -63t182 60t72 174q0 16 11 28t28 13h16q17 -1 29 -13t12 -28q-4 -156 -100 -244t-251 -88t-254 89t-100 249
v356q1 162 99 250t256 88z" />
    <glyph glyph-name="d" unicode="d" horiz-adv-x="1044" 
d="M248 686v-350q0 -119 73 -180q73 -62 183 -62t182 62t72 180v495q-119 95 -242 95q-124 0 -196 -62t-72 -178zM795 1499h24q37 0 37 -39v-1126q0 -160 -97 -249t-255 -89t-256 88t-98 250v356q0 158 98 246t256 88q66 0 140 -25t114 -55v516q0 39 37 39z" />
    <glyph glyph-name="e" unicode="e" horiz-adv-x="1003" 
d="M498 1028q158 0 254 -89t96 -249v-123q0 -88 -84 -88h-442q-18 1 -30 13t-11 28v17q0 16 11 28t30 13h430v110q0 117 -72 179q-72 63 -182 63t-184 -62q-73 -62 -72 -180v-352q0 -117 72 -179q72 -63 183 -63t183 60t72 174q0 16 11 28t28 13h16q17 -1 29 -13t12 -28
q-2 -158 -98 -245t-252 -87t-255 89t-100 249v356q1 162 99 250t256 88z" />
    <glyph glyph-name="f" unicode="f" horiz-adv-x="688" 
d="M94 1024h49q17 0 29 -12t12 -29v-8q0 -17 -11 -29t-30 -12h-49q-18 0 -29 12t-12 29v8q-1 17 11 29t30 12zM324 1024h217q16 0 27 -12t12 -29v-8q0 -17 -12 -29t-27 -12h-217l-2 -895q0 -39 -39 -39h-17q-41 0 -41 39l2 1143q-2 152 79 234t222 83q92 0 93 -41v-16
q1 -14 -11 -26t-28 -13h-52q-96 0 -151 -57t-55 -166v-156z" />
    <glyph glyph-name="g" unicode="g" horiz-adv-x="1060" 
d="M242 334q0 -117 74 -179q74 -63 178 -63t171 34t87 75v487q0 117 -72 179q-72 63 -184 63t-183 -62q-72 -62 -71 -182v-352zM499 1026q159 0 254 -88t95 -250v-844q0 -174 -92 -265t-247 -91t-249 86t-96 242q0 37 39 37h16q41 0 41 -37q4 -113 73 -172q69 -60 177 -60
t176 66q66 66 66 196v228q-111 -80 -262 -80q-150 0 -248 88t-99 250v356q1 162 99 250t257 88z" />
    <glyph glyph-name="h" unicode="h" horiz-adv-x="974" 
d="M160 1497h16q16 0 28 -11t13 -30v-1415q0 -17 -12 -29t-29 -12h-16q-16 0 -29 11q-12 11 -12 30v1415q0 18 12 30q13 11 29 11zM500 1028q141 0 230 -90t89 -248v-649q0 -41 -39 -41h-18q-41 0 -41 41v647q1 117 -63 180q-64 64 -172 64t-185 -78q-18 -18 -35 -18
q-37 0 -39 41q0 14 9 30q26 49 102 85t162 36z" />
    <glyph glyph-name="i" unicode="i" horiz-adv-x="417" 
d="M202 1427q-28 0 -36 -6t-8 -28v-21q0 -23 8 -29t37 -6t37 6t8 29v21q0 20 -9 27t-37 7zM201 1499q75 0 97 -19t21 -81v-27q-1 -70 -23 -88t-96 -18t-94 18t-20 88v27q0 66 20 83q21 17 95 17zM186 1026h35q25 0 33 -10t8 -31v-944q0 -17 -12 -29t-29 -12h-35
q-16 0 -28 11t-13 30v944q-1 27 11 34t30 7z" />
    <glyph glyph-name="j" unicode="j" horiz-adv-x="507" 
d="M282 1427q-28 0 -36 -6t-8 -28v-21q0 -23 8 -29t37 -6t37 6t8 29v21q-1 20 -10 27q-8 7 -36 7zM281 1499q75 0 97 -19t21 -81v-27q-1 -70 -23 -88t-96 -18t-94 18t-20 88v27q0 66 20 83q21 17 95 17zM2 -416q225 0 225 240v1159q1 17 13 29t28 12h17q16 0 28 -11t13 -30
v-1159q0 -336 -322 -336h-18q-39 0 -39 39v16q0 17 12 29q13 12 25 12h18z" />
    <glyph glyph-name="k" unicode="k" horiz-adv-x="964" 
d="M160 1495h18q39 0 39 -39v-1313q45 70 268 449t248 420q8 12 31 12h45q27 0 27 -20t-152 -271l-117 -192l269 -492q10 -16 10 -29q0 -20 -27 -20h-45q-16 0 -33 20l-231 422q-213 -356 -237 -389t-41 -43t-39 -10q-72 0 -72 80v1376q0 39 39 39z" />
    <glyph glyph-name="l" unicode="l" horiz-adv-x="602" 
d="M184 1495h17q39 0 39 -39v-1141q0 -219 186 -219h33q16 0 27 -12t12 -27v-16q0 -41 -74 -41q-139 0 -211 80t-70 233v1143q0 39 41 39z" />
    <glyph glyph-name="m" unicode="m" horiz-adv-x="1595" 
d="M735 688q0 242 -224 244q-110 0 -192 -92q-23 -18 -38 -19q-37 0 -39 41q0 17 8 33q94 133 256 133t244 -88t81 -250v-649q0 -41 -38 -41h-17q-41 0 -41 41v647zM174 1022h16q16 0 28 -11t13 -30v-940q0 -17 -12 -29t-29 -12h-16q-39 0 -39 41v940q0 41 39 41zM1335 688
q0 242 -226 244q-112 0 -196 -92q-23 -18 -39 -19q-37 0 -38 41q0 16 8 33q42 59 114 96t158 37q152 0 234 -88t82 -250v-649q0 -41 -39 -41h-17q-41 0 -41 41v647z" />
    <glyph glyph-name="n" unicode="n" horiz-adv-x="980" 
d="M162 1022h16q16 0 28 -11t13 -30v-940q0 -17 -12 -29t-29 -12h-16q-16 0 -29 11q-12 11 -12 30v940q0 18 12 30q13 11 29 11zM508 1028q154 0 236 -81t81 -236v-670q0 -41 -39 -41h-16q-41 0 -41 41v647q0 244 -223 244q-117 0 -199 -92q-23 -18 -39 -19q-37 0 -39 41
q0 16 9 33q42 59 114 96t156 37z" />
    <glyph glyph-name="o" unicode="o" horiz-adv-x="1032" 
d="M240 334q0 -117 74 -179q74 -63 184 -63t182 62t72 180v356q0 117 -72 179q-72 63 -182 63t-185 -62q-74 -62 -73 -180v-356zM498 1028q158 0 254 -89t96 -249v-356q0 -160 -96 -249t-253 -89t-256 89t-100 249v356q1 162 99 250t256 88z" />
    <glyph glyph-name="p" unicode="p" horiz-adv-x="1044" 
d="M471 930q-111 0 -183 -62t-73 -180v-498q125 -96 246 -96t193 64t73 180v350q-1 118 -73 180t-183 62zM470 1028q157 0 255 -88t98 -250v-356q0 -158 -98 -248t-255 -90t-255 84v-553q0 -39 -39 -39h-18q-39 0 -39 39v1163q0 160 97 249t254 89z" />
    <glyph glyph-name="q" unicode="q" horiz-adv-x="1056" 
d="M453 930q-111 0 -184 -62t-72 -180v-350q1 -117 73 -180q72 -64 195 -64t207 84q10 16 35 12v498q1 118 -71 180t-183 62zM453 1028q158 0 255 -89t97 -249v-1163q0 -15 -12 -27t-29 -12h-16q-16 0 -29 11q-12 11 -12 28v553q-109 -84 -260 -84t-249 90t-100 248v356
q0 162 98 250t257 88z" />
    <glyph glyph-name="r" unicode="r" horiz-adv-x="595" 
d="M492 1028q39 0 38 -41v-14q0 -17 -11 -29t-27 -12q-117 0 -187 -60t-69 -182v-649q0 -17 -12 -29t-29 -12h-15q-16 0 -28 11t-13 30v649q0 168 94 253q95 85 259 85z" />
    <glyph glyph-name="s" unicode="s" horiz-adv-x="931" 
d="M468 1028q157 0 241 -77t84 -226q1 -15 -11 -27t-28 -12h-19q-16 0 -27 11t-12 26q0 207 -231 207q-107 0 -161 -51t-54 -129t52 -124t198 -75t227 -90q82 -61 82 -183t-89 -203t-248 -81t-257 81t-98 238q0 43 41 43h16q39 0 39 -41q0 -223 264 -223q119 0 177 54
t58 134t-60 116q-62 36 -215 69t-219 105t-65 186q0 116 79 194t236 78z" />
    <glyph glyph-name="t" unicode="t" horiz-adv-x="688" 
d="M348 1024h152q16 0 27 -12t12 -29v-12q1 -17 -11 -29t-28 -12h-152q-16 0 -29 12q-12 12 -12 29v12q0 16 12 29q13 12 29 12zM74 1024h49q17 0 29 -12t12 -29v-12q0 -17 -11 -29t-30 -12h-49q-18 0 -30 12q-11 12 -11 29v12q0 16 11 29q12 12 30 12zM231 1495h17
q39 0 39 -39l-6 -1141q2 -104 58 -161t148 -58h52q16 0 27 -12t12 -27v-16q0 -41 -93 -41q-135 0 -217 83t-84 230l6 1143q4 39 41 39z" />
    <glyph glyph-name="u" unicode="u" horiz-adv-x="1019" 
d="M791 1024h20q39 0 39 -41v-743q0 -80 13 -110t52 -40l23 -6q31 -6 31 -27v-22q0 -35 -41 -35q-100 0 -138 59t-38 183v741q0 41 39 41zM184 1028h17q41 0 41 -41v-647q0 -121 60 -182q60 -62 171 -62t191 88q18 23 38 23q39 0 39 -45q0 -18 -10 -33q-41 -57 -115 -93
t-155 -36q-141 0 -229 89q-87 89 -87 249v649q0 41 39 41z" />
    <glyph glyph-name="v" unicode="v" horiz-adv-x="999" 
d="M838 1024h18q23 0 32 -13t9 -23t-2 -17l-338 -916q-25 -57 -80 -57t-74 55l-337 918q-2 8 -3 17q-1 8 9 22t32 14h19q25 0 39 -27l319 -874l318 874q12 27 39 27z" />
    <glyph glyph-name="w" unicode="w" horiz-adv-x="1198" 
d="M1085 1024h19q18 0 28 -13t11 -23q0 -10 -74 -321q-74 -312 -151 -620q-16 -51 -76 -51t-82 61l-185 602q-131 -418 -184 -602q-23 -61 -82 -61t-76 51l-225 928q-2 6 -2 15q0 10 9 22t30 12h18q33 0 39 -31l209 -866l201 649q12 58 62 58t69 -56q66 -227 197 -651
l211 866q7 31 34 31z" />
    <glyph glyph-name="x" unicode="x" horiz-adv-x="905" 
d="M719 1024h22q23 0 33 -22t0 -41q-45 -70 -138 -213t-136 -213v2q-12 -18 -15 -21l13 -20v2l290 -435q6 -10 7 -20q0 -43 -41 -43h-21q-18 0 -35 16l-270 412q-45 -70 -136 -206t-136 -206q-16 -16 -35 -16h-21q-27 0 -36 22t2 41l290 437v-2l13 18l-289 445q-10 19 0 41
t33 22h20q18 0 35 -16l260 -402l258 402q17 16 33 16z" />
    <glyph glyph-name="y" unicode="y" horiz-adv-x="1040" 
d="M178 1028h17q41 0 41 -41v-647q0 -121 60 -182q60 -62 171 -62t190 88q18 23 39 23q39 0 39 -45q0 -18 -10 -33q-41 -57 -115 -93t-155 -36q-141 0 -229 89q-87 89 -87 249v649q0 41 39 41zM784 1024h19q39 0 39 -41v-1094q0 -176 -93 -268t-253 -92t-247 85t-91 243
q0 39 39 39h18q39 0 39 -39q4 -113 73 -172t175 -60q244 0 243 262v1096q0 41 39 41z" />
    <glyph glyph-name="z" unicode="z" horiz-adv-x="933" 
d="M152 1024h542q82 0 82 -72q0 -31 -35 -78l-516 -778h523q39 0 38 -39v-16q0 -41 -38 -41h-562q-35 0 -55 20t-20 52t34 80l510 776h-503q-39 0 -39 39v16q0 41 39 41z" />
    <glyph glyph-name="braceleft" unicode="{" horiz-adv-x="694" 
d="M637 1359q-1 -24 -19 -37t-28 -13q-281 -6 -281 -254v-82q0 -211 -98 -275q74 -47 86 -134t12 -161v-55q0 -248 287 -254q16 0 28 -11t13 -28l-8 -30q-8 -29 -39 -29q-379 6 -379 352v72q0 213 -129 213h-10q-29 0 -53 17t-23 50q0 33 23 50q24 16 53 16h10
q129 0 129 211v78q0 346 385 352q41 0 41 -48z" />
    <glyph glyph-name="bar" unicode="|" horiz-adv-x="432" 
d="M195 1495h24q39 0 39 -39v-1603q0 -17 -11 -29t-28 -12h-24q-16 0 -28 12q-11 12 -11 29v1603q0 39 39 39z" />
    <glyph glyph-name="braceright" unicode="}" horiz-adv-x="694" 
d="M455 1055v-78q0 -211 129 -211h12q26 0 50 -16t24 -50t-24 -50q-24 -17 -50 -17h-12q-129 0 -129 -213v-72q0 -346 -385 -352q-39 0 -39 41l8 29q2 12 14 20t23 8q283 6 282 254v55q0 229 97 295q-47 30 -71 92t-26 91t-2 55t2 61v58q0 248 -288 254q-23 0 -32 12t-9 20
t10 37t37 29q379 -6 379 -352z" />
    <glyph glyph-name="asciitilde" unicode="~" 
d="M928 1040h49q27 0 27 -34q0 -113 -62 -172q-62 -60 -147 -60q-86 0 -168 44t-156 87t-121 43t-87 -33t-40 -104q0 -37 -30 -37h-31q-27 0 -27 37q-1 105 61 165t151 60t229 -86t198 -86q135 0 135 142q1 34 19 34z" />
    <glyph glyph-name="exclamdown" unicode="&#xa1;" horiz-adv-x="454" 
d="M218 868q28 0 37 8t9 27v21q0 22 -8 28t-37 6t-37 -6t-8 -28v-21q0 -23 8 -29t36 -6zM217 797q-74 0 -94 17t-21 83v27q0 70 20 88t95 18t97 -18t22 -88v-27q0 -61 -22 -81t-97 -19zM229 -410h-20q-39 0 -39 39v981q0 39 39 39h20q17 0 29 -11t12 -28v-981q0 -15 -12 -27
t-29 -12z" />
    <glyph glyph-name="cent" unicode="&#xa2;" horiz-adv-x="1034" 
d="M242 336q0 -106 58 -166t155 -74v832q-97 -12 -155 -74t-58 -166v-352zM496 1401h14q16 0 28 -11t13 -28v-336q135 -14 216 -101t81 -235q0 -39 -41 -39h-16q-39 0 -39 39q0 100 -56 160t-145 76v-830q88 14 143 74t58 158q0 16 11 28t28 13h16q17 -1 29 -13t12 -28
q-4 -144 -85 -230t-212 -100v-334q0 -16 -12 -28t-29 -11h-14q-16 0 -29 11q-12 11 -12 28v334q-141 12 -227 100q-85 88 -85 236v356q0 150 85 237t227 99v336q0 16 12 28q13 11 29 11z" />
    <glyph glyph-name="sterling" unicode="&#xa3;" 
d="M406 776h403q17 0 29 -12t12 -29v-18q0 -39 -41 -39h-403q-16 0 -29 11q-12 11 -12 28v18q0 16 12 29q13 12 29 12zM96 776h94q16 0 28 -12t13 -29v-18q0 -15 -12 -27t-29 -12h-94q-39 0 -39 39v18q-1 17 11 29t28 12zM340 1038v-936l635 2q17 0 29 -12t12 -31v-20
q-4 -37 -41 -41l-647 2q-55 0 -73 18q-17 18 -17 72l-2 957q0 172 87 278t275 107q121 0 248 -64q45 -23 59 -39t2 -35l-26 -43q-10 -20 -78 17q-111 63 -209 63t-155 -46q-59 -46 -79 -108t-20 -141z" />
    <glyph glyph-name="currency" unicode="&#xa4;" horiz-adv-x="1247" 
d="M299 679q0 -136 94 -230q95 -95 231 -95t231 96t95 229q0 134 -96 230q-96 97 -230 97t-230 -96t-95 -231zM123 1127q0 15 24 39t56 1l153 -157q115 94 267 94t266 -92l155 155q10 11 30 11t34 -16q16 -16 16 -34q0 -20 -10 -30l-158 -156q92 -114 92 -264t-92 -266
l158 -156q10 -14 10 -30t-24 -38q-24 -24 -56 -2l-155 158q-115 -90 -263 -90t-268 90l-155 -158q-13 -10 -31 -10t-39 21q-10 16 -10 30t10 29l158 156q-92 116 -92 266t90 264l-156 156q-10 14 -10 29z" />
    <glyph glyph-name="yen" unicode="&#xa5;" horiz-adv-x="892" 
d="M-6 1360q0 39 41 41h22q25 0 35 -19l342 -581l318 579q10 20 36 21h23q25 -1 33 -15t8 -24t-6 -21l-340 -610h264q41 0 41 -39v-18q0 -16 -11 -28t-30 -13h-289v-60h289q18 0 30 -12t11 -29v-18q0 -16 -11 -28t-30 -13h-289v-432q0 -41 -39 -41h-18q-16 0 -29 11
q-12 11 -12 30v432h-295q-16 0 -28 12q-11 12 -11 29v18q0 16 11 28t28 13h295v60h-295q-16 0 -28 12q-11 12 -11 29v18q0 39 39 39h272l-360 608q-6 10 -6 21z" />
    <glyph glyph-name="brokenbar" unicode="&#xa6;" horiz-adv-x="409" 
d="M190 578h19q15 0 27 -12t12 -29v-492q0 -39 -39 -39h-19q-41 0 -40 39v492q0 17 11 29t29 12zM190 1401h19q39 0 39 -39v-492q0 -16 -11 -28t-28 -13h-19q-18 1 -29 13t-11 28v492q-1 39 40 39z" />
    <glyph glyph-name="section" unicode="&#xa7;" horiz-adv-x="970" 
d="M197 629q0 -123 102 -203q78 -57 199 -113q131 6 213 71q82 66 82 170t-88 167q-55 37 -111 65l-152 78q-104 -4 -175 -72q-70 -69 -70 -163zM512 1499q176 0 276 -88t101 -258q0 -17 -11 -29t-28 -12h-19q-41 0 -40 47q0 119 -74 179t-195 60q-122 0 -192 -52t-70 -146
t96 -164q66 -47 166 -102q100 -54 116 -64t65 -40q50 -30 97 -72t58 -70q31 -78 31 -137q0 -109 -70 -192t-188 -113q121 -68 167 -132t46 -155q0 -139 -106 -221t-266 -82q-158 0 -274 90t-116 254q0 16 11 28t28 13h18q41 0 41 -47q0 -106 86 -175t202 -69t198 54t82 152
t-84 158t-232 129q-150 69 -243 159t-93 205q0 116 62 202t176 121q-98 68 -139 131t-41 165t91 187q91 86 267 86z" />
    <glyph glyph-name="dieresis" unicode="&#xa8;" horiz-adv-x="739" 
d="M524 1300q-26 0 -32 -5t-7 -25v-21q-1 -20 7 -25t34 -5t32 5q7 5 7 25v21q0 18 -8 24t-33 6zM184 1300q-26 0 -32 -5t-7 -25v-21q-1 -20 7 -25t34 -5t32 5q7 5 7 25v21q0 18 -8 24t-33 6zM183 1366q67 0 87 -17t21 -75v-25q-1 -61 -21 -79t-87 -17q-67 0 -85 16t-18 80
v25q0 60 18 76t85 16zM523 1366q67 0 87 -17t21 -75v-25q-1 -61 -21 -79t-87 -17q-67 0 -85 17t-18 79v25q0 60 18 76t85 16z" />
    <glyph glyph-name="copyright" unicode="&#xa9;" horiz-adv-x="1269" 
d="M639 1450q-205 0 -352 -116t-148 -326v-467q-1 -211 147 -327t353 -116t348 115t143 328v467q0 214 -143 328t-348 114zM632 1239q144 0 231 -81t87 -226q0 -35 -37 -35h-16q-14 0 -25 10q-10 10 -10 25q0 104 -64 161q-65 56 -165 56t-166 -56t-66 -163v-320
q0 -106 66 -162t166 -57q100 0 164 54q63 54 65 157q0 37 35 37h16q37 0 37 -37q-4 -141 -91 -221t-227 -80t-231 82q-90 82 -90 225v324q0 147 89 227q88 80 232 80zM639 1548q272 0 431 -156t159 -413v-410q0 -257 -159 -413t-429 -156t-435 158t-165 411v410
q0 265 163 417t435 152z" />
    <glyph glyph-name="ordfeminine" unicode="&#xaa;" horiz-adv-x="1032" 
d="M770 817q-111 0 -111 135v310q0 72 -41 112q-42 40 -114 41q-72 0 -113 -43t-41 -115v-198q0 -168 156 -168q47 0 94 29q10 8 16 -5l19 -47q8 -14 0 -20q-61 -41 -151 -41t-154 60q-63 60 -64 171v240q0 111 65 166t175 55q238 0 237 -235v-265q0 -82 21 -98
q22 -16 48 -6t26 -4v-51q0 -8 -18 -16t-50 -7z" />
    <glyph glyph-name="guillemotleft" unicode="&#xab;" horiz-adv-x="1142" 
d="M711 274q0 -57 -49 -57q-16 0 -27 8l-471 355q-41 32 -41 74t43 75l469 356q35 18 54 -2t19 -43t-24 -41l-461 -344l461 -344q27 -18 27 -37zM1061 274q0 -57 -49 -57q-16 0 -27 8l-471 355q-41 32 -41 74t43 75l469 356q35 18 54 -2t19 -43t-24 -41l-461 -344l461 -344
q27 -18 27 -37z" />
    <glyph glyph-name="logicalnot" unicode="&#xac;" horiz-adv-x="983" 
d="M25 1024h929q37 0 42 -6q4 -6 8 -9t4 -22v-346q0 -39 -39 -39h-21q-39 0 -39 39v285h-884q-41 0 -41 39v18q0 41 41 41z" />
    <glyph glyph-name="softhyphen" unicode="&#xad;" horiz-adv-x="718" 
d="M104 709h510q41 0 41 -39v-21q0 -39 -41 -39h-510q-41 0 -41 39v21q0 39 41 39z" />
    <glyph glyph-name="registered" unicode="&#xae;" 
d="M426 1260h227q137 0 221 -69t84 -189t-65 -191q-27 -29 -86 -51t-139 -23h-21l264 -401q27 -45 27 -51q0 -23 -33 -23h-26q-29 0 -39 17l-285 432q-27 45 -27 61q0 43 54 43h63q223 0 223 168q0 119 -86 156q-68 33 -131 32h-209v-876q0 -31 -39 -31h-10q-39 0 -39 31
v893q0 52 12 62t60 10zM639 1450q-205 0 -352 -116t-148 -326v-467q-1 -211 147 -327t353 -116t348 115t143 328v467q0 214 -143 328t-348 114zM639 1548q272 0 431 -156t159 -413v-410q0 -257 -159 -413t-429 -156t-435 158t-165 411v410q0 265 163 417t435 152z" />
    <glyph glyph-name="macron" unicode="&#xaf;" horiz-adv-x="1042" 
d="M143 1231h758q39 0 39 -39v-18q0 -41 -39 -41h-758q-41 0 -41 41v18q0 39 41 39z" />
    <glyph glyph-name="degree" unicode="&#xb0;" horiz-adv-x="897" 
d="M449 1450q-70 0 -116 -46t-46 -116t46 -116t116 -46q69 0 115 46t46 116t-46 116t-115 46zM449 1552q109 0 187 -78t77 -186q0 -108 -78 -186q-79 -78 -187 -78t-186 78t-78 186t78 186t187 78z" />
    <glyph glyph-name="plusminus" unicode="&#xb1;" horiz-adv-x="749" 
d="M-33 100h799q39 0 39 -39v-18q0 -17 -11 -29t-28 -12h-799q-18 0 -29 12t-12 29v18q0 39 41 39zM-31 750h350v352q0 39 39 39h17q39 -4 43 -39v-352h350q39 0 39 -39v-19q0 -16 -11 -28t-28 -13h-350v-350q-4 -41 -41 -41h-21q-37 4 -37 41v350h-350q-18 1 -29 13t-12 28
v19q0 39 41 39z" />
    <glyph glyph-name="twosuperior" unicode="&#xb2;" horiz-adv-x="1024" 
d="M657 1585q0 139 -157 139q-129 0 -168 -122q-4 -14 -25 -15h-14q-31 0 -31 19q0 27 6 32q25 76 89 118q65 42 160 42t159 -60t63 -155q0 -127 -155 -326q-31 -39 -129 -155l-99 -117h367q27 0 27 -24v-29q0 -25 -27 -25h-424q-55 0 -55 47q0 23 73 109q172 201 205 246
q135 174 135 276z" />
    <glyph glyph-name="threesuperior" unicode="&#xb3;" horiz-adv-x="1095" 
d="M770 1579q0 -63 -34 -119t-101 -86q156 -47 156 -219q0 -123 -80 -184t-181 -62q-213 0 -254 197q-4 12 -4 18t13 6l49 3h6q2 0 6 -15q35 -135 184 -135q82 0 135 45q52 45 52 127t-51 132t-162 50h-76q-14 0 -15 3t-1 34q10 33 18 35h70q98 0 147 47t49 123t-41 121
t-127 45q-119 0 -139 -117q-2 -8 -10 -8h-64q-12 0 -6 22q11 70 74 122t163 52t162 -67q62 -68 62 -170z" />
    <glyph glyph-name="acute" unicode="&#xb4;" horiz-adv-x="733" 
d="M494 1499q53 0 53 -47q0 -10 -15 -27l-219 -272q-29 -35 -61 -35t-41 16q-10 16 -10 26q0 11 10 24l219 278q8 8 12 16t9 11q6 2 12 6t10 3q5 -1 11 0t10 1z" />
    <glyph glyph-name="mu" unicode="&#xb5;" horiz-adv-x="970" 
d="M160 1024h18q39 0 39 -41v-766q18 0 35 -20q63 -102 217 -103q111 0 183 62t73 180v647q0 41 41 41h16q39 0 39 -41v-649q0 -158 -98 -248t-252 -90t-254 90v-518q0 -39 -39 -39h-18q-39 0 -39 39v1415q0 41 39 41z" />
    <glyph glyph-name="paragraph" unicode="&#xb6;" 
d="M969 1495h24q39 0 39 -39v-1603q0 -17 -11 -29t-28 -12h-24q-16 0 -28 12q-11 12 -11 29v1603q0 39 39 39zM780 1495h25q39 0 39 -39v-1603q0 -17 -11 -29t-28 -12h-25q-16 0 -27 12t-12 29v1603q0 39 39 39zM520 1434h105q33 0 32 -41v-19q0 -37 -32 -37l-101 -2
q-297 -8 -297 -274q0 -129 88 -201t224 -72h86q31 0 30 -40v-15q0 -41 -30 -41h-93q-188 0 -296 106t-107 273t109 265t282 98z" />
    <glyph glyph-name="periodcentered" unicode="&#xb7;" horiz-adv-x="466" 
d="M232 637q-34 0 -43 -7t-9 -36v-21q0 -29 9 -35t44 -8q35 0 45 8t9 35v21q-1 27 -11 35t-44 8zM231 725q88 0 116 -23t28 -98v-31q0 -87 -27 -109t-117 -22q-91 0 -115 23t-24 108v31q0 78 26 100t113 21z" />
    <glyph glyph-name="cedilla" unicode="&#xb8;" 
d="M664 -324v58q0 48 -33 74t-90 26t-76 -6v2l78 231l86 -2l-49 -137q78 -6 124 -51t46 -123v-86q0 -82 -56 -128t-124 -46q-66 0 -118 22t-77 50l47 78q46 -62 140 -62q38 0 70 26t32 74z" />
    <glyph glyph-name="onesuperior" unicode="&#xb9;" horiz-adv-x="784" 
d="M473 1743v-807q0 -29 -24 -29h-35q-25 0 -25 27v792l-215 -170q-20 -16 -33 3l-14 18q-6 6 -6 14t12 19l223 184q29 25 62 25q55 -2 55 -76z" />
    <glyph glyph-name="ordmasculine" unicode="&#xba;" horiz-adv-x="1032" 
d="M520 1415q-84 0 -123 -46t-39 -122v-203q0 -74 40 -120t122 -45q150 0 150 165v203q0 168 -150 168zM518 1499q108 0 174 -61t66 -170v-244q0 -109 -66 -169t-174 -60t-174 60q-68 60 -68 169v244q0 113 67 172t175 59z" />
    <glyph glyph-name="guillemotright" unicode="&#xbb;" horiz-adv-x="1101" 
d="M102 217q-38 0 -41 58q0 17 27 36l459 344l-459 344q-25 18 -25 41q1 23 21 43t53 2l469 -356q43 -33 43 -76t-41 -73l-471 -355q-10 -8 -35 -8zM453 217q-41 0 -41 58q0 17 26 36l459 344l-459 344q-25 18 -24 41q0 23 20 43t53 2l469 -356q43 -33 43 -76t-41 -73
l-471 -355q-10 -8 -34 -8z" />
    <glyph glyph-name="onequarter" unicode="&#xbc;" horiz-adv-x="1433" 
d="M1182 383v442l-303 -442h303zM852 305q-68 0 -68 64q0 12 11 28l331 477q25 35 61 35q73 0 75 -59v-467h124q10 0 18 -9t7 -20v-14q0 -35 -25 -35h-124v-280q0 -25 -25 -25h-29q-27 0 -26 25v280h-330zM133 0q-31 0 -31 31q0 12 9 22l1163 1432q20 27 43 26h6
q23 0 34 -18t-3 -35l-1161 -1431q-16 -27 -37 -27h-23zM395 1417v-807q0 -29 -24 -28h-35q-25 0 -25 26v793l-215 -170q-20 -16 -33 2l-14 18q-6 7 -6 15t12 18l224 184q29 25 61 25q55 -2 55 -76z" />
    <glyph glyph-name="onehalf" unicode="&#xbd;" horiz-adv-x="1024" 
d="M1348 678q0 139 -158 139q-129 0 -168 -123q-4 -14 -25 -14h-14q-31 0 -31 18q0 27 6 33q24 76 88 118t160 42q96 -1 160 -61t64 -154q0 -127 -156 -326q-31 -39 -129 -155l-98 -117h366q27 0 27 -25v-28q0 -25 -27 -25h-422q-57 0 -57 47q0 23 123 167t155 187
q136 175 136 277zM137 0q-31 0 -31 31q0 12 9 22l1163 1432q20 27 43 26h6q23 0 34 -18t-3 -35l-1161 -1431q-16 -27 -37 -27h-23zM395 1432v-807q0 -29 -24 -29h-35q-25 0 -25 27v792l-215 -170q-20 -16 -33 2l-14 19q-6 6 -6 14t12 18l224 185q29 25 61 24q55 -1 55 -75z
" />
    <glyph glyph-name="threequarters" unicode="&#xbe;" horiz-adv-x="1433" 
d="M1171 383v442l-303 -442h303zM842 305q-68 0 -68 64q0 12 10 28l332 477q25 35 61 35q74 0 74 -59v-467h125q10 0 18 -9t7 -20v-14q0 -35 -25 -35h-125v-280q0 -25 -24 -25h-29q-27 0 -27 25v280h-329zM156 0q-31 0 -31 31q0 12 8 22l1163 1432q20 27 43 26h7
q24 0 34 -18t-4 -35l-1161 -1431q-16 -27 -37 -27h-22zM300 1499q100 0 163 -67q61 -68 61 -170q0 -64 -34 -120t-101 -85q156 -47 156 -219q0 -122 -80 -184t-180 -62q-213 0 -254 196q-4 12 -4 18t12 7l49 2h6q2 0 6 -14q35 -135 185 -135q82 0 134 45t52 127t-51 132
t-162 50h-76q-14 0 -15 3t-1 34q10 33 18 35h70q98 0 147 47t50 123q0 76 -41 120t-127 45q-119 0 -140 -116q-2 -8 -10 -8h-63q-12 0 -7 22q11 70 74 122t163 52z" />
    <glyph glyph-name="questiondown" unicode="&#xbf;" horiz-adv-x="905" 
d="M476 887q28 0 36 6t8 29v20q0 23 -8 29t-37 6t-37 -6t-8 -29v-20q0 -21 9 -28t37 -7zM477 815q-75 -1 -97 19t-22 81v27q0 70 23 88t97 18t93 -18q20 -18 21 -88v-27q0 -66 -20 -83t-95 -17zM444 -362q-184 0 -274 108t-90 248q0 141 92 239t246 119q2 0 4 -2v293
q0 39 39 39h18q41 0 41 -39v-303q0 -48 -20 -64t-74 -20q-106 -10 -177 -80t-71 -180t69 -186q69 -74 197 -74q184 0 248 147q12 25 37 25h19q41 0 40 -33q0 -8 -2 -18q-41 -113 -134 -166t-208 -53z" />
    <glyph glyph-name="Agrave" unicode="&#xc0;" horiz-adv-x="1204" 
d="M453 1868q0 41 55 41q29 0 38 -9t23 -28l219 -279q19 -23 4 -44q-14 -21 -46 -21t-60 35l-219 272q-14 17 -14 33zM408 631h354q16 0 28 -11t13 -30v-19q0 -18 -12 -29t-29 -12h-354q-39 0 -39 41v19q0 41 39 41zM1137 41q0 -41 -41 -41h-25q-27 0 -39 27l-446 1271
l-449 -1271q-12 -27 -39 -27h-24q-41 0 -41 41q0 8 2 14l469 1325q18 56 78 56t82 -58l471 -1323q2 -6 2 -14z" />
    <glyph glyph-name="Aacute" unicode="&#xc1;" horiz-adv-x="1204" 
d="M707 1909q53 0 53 -47q0 -10 -15 -27l-219 -272q-28 -35 -60 -35t-42 15t-10 27t10 23l219 279q8 8 11 14t10 11l12 8t10 3t10 0t11 1zM408 631h354q16 0 28 -11t13 -30v-19q0 -18 -12 -29t-29 -12h-354q-39 0 -39 41v19q0 41 39 41zM1137 41q0 -41 -41 -41h-25
q-27 0 -39 27l-446 1271l-449 -1271q-12 -27 -39 -27h-24q-41 0 -41 41q0 8 2 14l469 1325q18 56 78 56t82 -58l471 -1323q2 -6 2 -14z" />
    <glyph glyph-name="Acircumflex" unicode="&#xc2;" horiz-adv-x="1204" 
d="M584 1950q47 0 75 -39l248 -312q10 -12 11 -28q0 -37 -41 -37h-27q-23 0 -31 12l-231 297l-4 4l-228 -301q-8 -12 -28 -12h-27q-41 0 -41 37q0 12 10 28l238 312q29 39 76 39zM408 631h354q16 0 28 -11t13 -30v-19q0 -18 -12 -29t-29 -12h-354q-39 0 -39 41v19
q0 41 39 41zM1137 41q0 -41 -41 -41h-25q-27 0 -39 27l-446 1271l-449 -1271q-12 -27 -39 -27h-24q-41 0 -41 41q0 8 2 14l469 1325q18 56 78 56t82 -58l471 -1323q2 -6 2 -14z" />
    <glyph glyph-name="Atilde" unicode="&#xc3;" horiz-adv-x="1204" 
d="M862 1819h49q27 0 27 -35q0 -115 -49 -173t-139 -59q-48 0 -92 25t-94 69t-79 62t-67 18t-70 -34q-31 -34 -31 -107q0 -33 -30 -33h-31q-27 0 -27 41q1 105 53 163t134 58t174 -73q10 -8 38 -31t38 -31q45 -37 79 -37q98 0 99 140v12q0 25 18 25zM408 631h354
q16 0 28 -11t13 -30v-19q0 -18 -12 -29t-29 -12h-354q-39 0 -39 41v19q0 41 39 41zM1137 41q0 -41 -41 -41h-25q-27 0 -39 27l-446 1271l-449 -1271q-12 -27 -39 -27h-24q-41 0 -41 41q0 8 2 14l469 1325q18 56 78 56t82 -58l471 -1323q2 -6 2 -14z" />
    <glyph glyph-name="Adieresis" unicode="&#xc4;" horiz-adv-x="1204" 
d="M756 1710q-24 0 -32 -5q-7 -5 -7 -26v-20q0 -19 7 -25t33 -6t33 5t7 26v20q-1 19 -9 25t-32 6zM416 1710q-25 0 -32 -5t-7 -26v-20q0 -19 7 -25t33 -6t33 5t7 26v20q0 19 -8 25t-33 6zM522 1683v-24q0 -61 -20 -79t-87 -17q-67 0 -85 16t-19 80v24q1 60 19 76
q18 17 85 17t87 -18t20 -75zM862 1683v-24q0 -61 -20 -79t-87 -17q-67 0 -85 17t-19 79v24q1 60 19 76q18 17 85 17t87 -18t20 -75zM408 631h354q16 0 28 -11t13 -30v-19q0 -18 -12 -29t-29 -12h-354q-39 0 -39 41v19q0 41 39 41zM1137 41q0 -41 -41 -41h-25q-27 0 -39 27
l-446 1271l-449 -1271q-12 -27 -39 -27h-24q-41 0 -41 41q0 8 2 14l469 1325q18 56 78 56t82 -58l471 -1323q2 -6 2 -14z" />
    <glyph glyph-name="Aring" unicode="&#xc5;" horiz-adv-x="1204" 
d="M584 1823q-47 0 -80 -26t-33 -75v-98q0 -49 33 -75q33 -25 80 -25t78 26t30 74v98q1 47 -30 74t-78 27zM584 1911q94 0 144 -45t50 -129v-127q0 -84 -50 -129t-143 -45t-147 45q-53 45 -53 129v127q0 84 53 129q52 45 146 45zM408 631h354q16 0 28 -11t13 -30v-19
q0 -18 -12 -29t-29 -12h-354q-39 0 -39 41v19q0 41 39 41zM1137 41q0 -41 -41 -41h-25q-27 0 -39 27l-446 1271l-449 -1271q-12 -27 -39 -27h-24q-41 0 -41 41q0 8 2 14l469 1325q18 56 78 56t82 -58l471 -1323q2 -6 2 -14z" />
    <glyph glyph-name="AE" unicode="&#xc6;" horiz-adv-x="2228" 
d="M408 631h354q16 0 28 -11t13 -30v-19q0 -18 -12 -29t-29 -12h-354q-39 0 -39 41v19q0 41 39 41zM1024 82q0 -39 15 -59t57 -23h-25q-27 0 -39 27l-446 1271l-449 -1271q-12 -27 -39 -27h-24q-41 0 -41 41q0 8 2 14l469 1325q18 56 78 56t82 -58l360 -1012v-284zM1249 795
h439q18 -1 29 -13t12 -28v-19q0 -41 -41 -41h-439q-41 0 -41 41v19q0 16 12 28t29 13zM1106 1434h715q16 0 28 -12t13 -29v-19q0 -18 -12 -29t-29 -12h-695v-1233h695q16 0 28 -11t13 -30v-18q0 -17 -12 -29t-29 -12h-722q38 2 38 41q0 8 -2 14l-111 311v988q0 40 18 60
t64 20z" />
    <glyph glyph-name="Ccedilla" unicode="&#xc7;" horiz-adv-x="1155" 
d="M664 -362v57q0 47 -33 74t-90 27t-76 -7v2l71 211q39 -3 85 -4l-41 -115q78 -6 124 -51t46 -123v-86q0 -82 -56 -128t-124 -46q-66 0 -118 22t-77 50l47 78q44 -59 140 -62q38 0 70 26t32 75zM578 1446q54 0 110 -9q55 -9 122 -39t120 -76t94 -127t51 -187q0 -45 -41 -45
h-18q-37 0 -41 36q-10 86 -43 152q-33 67 -76 101q-44 34 -112 63t-139 29t-117 -9q-46 -8 -103 -35q-57 -26 -100 -70t-73 -124t-30 -184v-402q0 -104 33 -184t79 -124t126 -79t166 -35t146 16t120 54q127 80 127 297q0 35 11 45t30 10h16q41 0 41 -41q0 -125 -40 -219
t-93 -142q-52 -48 -144 -84t-174 -36h-5l8 22l-86 3l-7 -21q-94 6 -179 46t-141 93t-95 151t-39 222v416q0 129 38 227q38 99 92 151t127 86t129 43t110 9z" />
    <glyph glyph-name="Egrave" unicode="&#xc8;" horiz-adv-x="1024" 
d="M379 1868q0 41 55 41q29 0 38 -9t24 -28l219 -279q10 -12 10 -23q0 -10 -10 -26t-42 -16t-61 35l-219 272q-14 17 -14 33zM352 795h439q18 -1 29 -13t11 -28v-19q0 -41 -40 -41h-439q-41 0 -41 41v19q-1 16 11 28t30 13zM209 1434h715q16 0 28 -12t13 -29v-19
q-1 -18 -13 -29t-28 -12h-695v-1233h695q16 0 28 -11t13 -30v-18q-1 -17 -13 -29t-28 -12h-717q-49 0 -65 22q-15 22 -15 60v1272q1 40 19 60t63 20z" />
    <glyph glyph-name="Eacute" unicode="&#xc9;" horiz-adv-x="1024" 
d="M633 1909q53 0 53 -47q0 -10 -14 -27l-219 -272q-29 -35 -61 -35t-42 15t-10 27t10 23l219 279q8 8 12 15t15 14q12 8 16 7t10 0t11 1zM352 795h439q18 -1 29 -13t11 -28v-19q0 -41 -40 -41h-439q-41 0 -41 41v19q-1 16 11 28t30 13zM209 1434h715q16 0 28 -12t13 -29
v-19q-1 -18 -13 -29t-28 -12h-695v-1233h695q16 0 28 -11t13 -30v-18q-1 -17 -13 -29t-28 -12h-717q-49 0 -65 22q-15 22 -15 60v1272q1 40 19 60t63 20z" />
    <glyph glyph-name="Ecircumflex" unicode="&#xca;" horiz-adv-x="1024" 
d="M510 1950q47 0 76 -39l248 -312q10 -12 10 -28q0 -37 -41 -37h-27q-23 0 -31 12l-231 297l-4 4l-227 -301q-8 -12 -29 -12h-27q-41 0 -41 37q0 12 11 28l237 312q29 39 76 39zM352 795h439q18 -1 29 -13t11 -28v-19q0 -41 -40 -41h-439q-41 0 -41 41v19q-1 16 11 28
t30 13zM209 1434h715q16 0 28 -12t13 -29v-19q-1 -18 -13 -29t-28 -12h-695v-1233h695q16 0 28 -11t13 -30v-18q-1 -17 -13 -29t-28 -12h-717q-49 0 -65 22q-15 22 -15 60v1272q1 40 19 60t63 20z" />
    <glyph glyph-name="Edieresis" unicode="&#xcb;" horiz-adv-x="1024" 
d="M682 1710q-25 0 -32 -5t-7 -26v-20q0 -19 7 -25t33 -6t33 5t7 26v20q0 19 -8 25t-33 6zM342 1710q-25 0 -32 -5t-7 -26v-20q0 -19 7 -25t33 -6t33 5t7 26v20q0 19 -8 25t-33 6zM449 1659q-1 -61 -21 -79t-87 -17q-67 0 -85 16t-18 80v24q0 60 18 76q18 17 85 17t87 -18
t21 -75v-24zM788 1683v-24q0 -61 -20 -79t-87 -17q-67 0 -85 17t-18 79v24q0 60 18 76q18 17 85 17t87 -18t20 -75zM352 795h439q18 -1 29 -13t11 -28v-19q0 -41 -40 -41h-439q-41 0 -41 41v19q-1 16 11 28t30 13zM209 1434h715q16 0 28 -12t13 -29v-19q-1 -18 -13 -29
t-28 -12h-695v-1233h695q16 0 28 -11t13 -30v-18q-1 -17 -13 -29t-28 -12h-717q-49 0 -65 22q-15 22 -15 60v1272q1 40 19 60t63 20z" />
    <glyph glyph-name="Igrave" unicode="&#xcc;" horiz-adv-x="409" 
d="M72 1868q0 41 55 41q29 0 38 -9t23 -28l220 -279q10 -12 10 -23q0 -10 -10 -26t-42 -16t-61 35l-219 272q-14 17 -14 33zM193 1434h18q17 0 29 -12t12 -29v-1352q0 -17 -12 -29t-29 -12h-18q-18 0 -30 12q-11 12 -11 29v1352q0 17 12 29t29 12z" />
    <glyph glyph-name="Iacute" unicode="&#xcd;" horiz-adv-x="409" 
d="M326 1909q53 0 53 -47q0 -10 -14 -27l-220 -272q-29 -35 -61 -35t-41 15q-10 15 -10 27t10 23l219 279q8 8 10 12t8 9t7 7q2 2 8 5q6 4 10 3q5 -1 11 0t10 1zM193 1434h18q17 0 29 -12t12 -29v-1352q0 -17 -12 -29t-29 -12h-18q-18 0 -30 12q-11 12 -11 29v1352
q0 17 12 29t29 12z" />
    <glyph glyph-name="Icircumflex" unicode="&#xce;" horiz-adv-x="409" 
d="M203 1950q47 0 76 -39l247 -312q10 -12 11 -28q0 -37 -41 -37h-27q-23 0 -31 12l-231 297l-4 4l-228 -301q-8 -12 -28 -12h-27q-41 0 -41 37q0 12 10 28l238 312q29 39 76 39zM193 1434h18q17 0 29 -12t12 -29v-1352q0 -17 -12 -29t-29 -12h-18q-18 0 -30 12
q-11 12 -11 29v1352q0 17 12 29t29 12z" />
    <glyph glyph-name="Idieresis" unicode="&#xcf;" horiz-adv-x="409" 
d="M375 1710q-25 0 -32 -5t-7 -26v-20q0 -19 7 -25t33 -6t33 5t7 26v20q0 19 -8 25t-33 6zM35 1710q-25 0 -32 -5t-7 -26v-20q0 -19 7 -25t33 -6t33 5t7 26v20q0 19 -8 25t-33 6zM141 1683v-24q0 -61 -20 -79t-87 -17q-67 0 -85 16t-19 80v24q1 60 19 76q18 17 85 17t87 -18
t20 -75zM481 1683v-24q0 -61 -20 -79t-87 -17q-67 0 -85 17t-19 79v24q1 60 19 76q18 17 85 17t87 -18t20 -75zM193 1434h18q17 0 29 -12t12 -29v-1352q0 -17 -12 -29t-29 -12h-18q-18 0 -30 12q-11 12 -11 29v1352q0 17 12 29t29 12z" />
    <glyph glyph-name="Eth" unicode="&#xd0;" horiz-adv-x="1179" 
d="M498 1333h-310v-567h238q41 0 41 -39v-20q0 -39 -41 -39h-238v-568h322q195 0 287 92t92 302v411q0 225 -82 327t-309 101zM166 1434h332q303 0 403 -148q51 -74 69 -163t19 -224v-393q1 -262 -109 -384t-370 -122h-342q-82 0 -82 84v584h-170q-41 0 -41 39v20
q0 39 41 39h170v586q0 46 18 64t62 18z" />
    <glyph glyph-name="Ntilde" unicode="&#xd1;" 
d="M891 1819h49q27 0 27 -35q0 -115 -49 -173t-140 -59q-49 0 -92 25t-93 69t-79 62t-68 18q-40 0 -70 -34t-30 -107q0 -33 -31 -33h-30q-27 0 -27 41q0 105 52 163t134 58t174 -73q10 -8 38 -31t38 -31q45 -37 80 -37q98 0 98 140v12q1 25 19 25zM1098 76q0 -80 -90 -80
q-43 0 -72 45l-727 1247v-1247q0 -17 -12 -29t-29 -12h-23q-16 0 -27 12t-12 29v1313q0 84 76 84q55 0 86 -49q395 -655 727 -1248v1252q-1 16 11 28t30 13h21q18 0 29 -12t12 -29v-1317z" />
    <glyph glyph-name="Ograve" unicode="&#xd2;" horiz-adv-x="1241" 
d="M487 1868q0 41 56 41q29 0 38 -9t23 -28l219 -279q19 -23 4 -44q-14 -21 -46 -21t-60 35l-219 272q-15 17 -15 33zM601 1333q-46 0 -91 -7t-103 -33t-102 -67q-43 -42 -73 -121t-29 -183v-402q-1 -104 29 -184t74 -124t102 -71q92 -43 194 -43q103 0 177 35q75 35 118 79
t73 124t29 184v402q0 104 -30 183q-31 79 -74 121t-101 68t-103 32q-44 7 -90 7zM1100 930v-416q0 -129 -38 -227q-38 -97 -92 -151t-148 -96t-223 -42q-130 0 -223 45t-147 98q-53 53 -90 151t-37 222v416q0 129 38 225q38 95 91 147t127 84q168 71 359 38q57 -9 130 -42
t126 -85t90 -147t37 -220z" />
    <glyph glyph-name="Oacute" unicode="&#xd3;" horiz-adv-x="1241" 
d="M741 1909q53 0 54 -47q0 -10 -15 -27l-219 -272q-29 -35 -61 -35t-41 15q-10 15 -10 27t10 23l219 279q8 8 12 16t15 14q12 7 16 6t10 0t10 1zM601 1333q-46 0 -91 -7t-103 -33t-102 -67q-43 -42 -73 -121t-29 -183v-402q-1 -104 29 -184t74 -124t102 -71q92 -43 194 -43
q103 0 177 35q75 35 118 79t73 124t29 184v402q0 104 -30 183q-31 79 -74 121t-101 68t-103 32q-44 7 -90 7zM1100 930v-416q0 -129 -38 -227q-38 -97 -92 -151t-148 -96t-223 -42q-130 0 -223 45t-147 98q-53 53 -90 151t-37 222v416q0 129 38 225q38 95 91 147t127 84
q168 71 359 38q57 -9 130 -42t126 -85t90 -147t37 -220z" />
    <glyph glyph-name="Ocircumflex" unicode="&#xd4;" horiz-adv-x="1241" 
d="M618 1950q46 0 76 -39l248 -312q10 -12 10 -28q0 -37 -41 -37h-26q-23 0 -31 12l-231 297l-5 4l-227 -301q-8 -12 -29 -12h-26q-41 0 -41 37q0 12 10 28l238 312q29 39 75 39zM601 1333q-46 0 -91 -7t-103 -33t-102 -67q-43 -42 -73 -121t-29 -183v-402q-1 -104 29 -184
t74 -124t102 -71q92 -43 194 -43q103 0 177 35q75 35 118 79t73 124t29 184v402q0 104 -30 183q-31 79 -74 121t-101 68t-103 32q-44 7 -90 7zM1100 930v-416q0 -129 -38 -227q-38 -97 -92 -151t-148 -96t-223 -42q-130 0 -223 45t-147 98q-53 53 -90 151t-37 222v416
q0 129 38 225q38 95 91 147t127 84q168 71 359 38q57 -9 130 -42t126 -85t90 -147t37 -220z" />
    <glyph glyph-name="Otilde" unicode="&#xd5;" horiz-adv-x="1241" 
d="M897 1819h49q27 0 27 -35q0 -115 -49 -173t-140 -59q-49 0 -92 25t-93 69t-79 62q-30 18 -68 18t-69 -34t-31 -107q0 -33 -30 -33h-31q-27 0 -27 41q0 105 52 163t134 58t175 -73q53 -43 86 -71q34 -28 69 -28q98 0 99 140v12q0 25 18 25zM601 1333q-46 0 -91 -7
t-103 -33t-102 -67q-43 -42 -73 -121t-29 -183v-402q-1 -104 29 -184t74 -124t102 -71q92 -43 194 -43q103 0 177 35q75 35 118 79t73 124t29 184v402q0 104 -30 183q-31 79 -74 121t-101 68t-103 32q-44 7 -90 7zM1100 930v-416q0 -129 -38 -227q-38 -97 -92 -151t-148 -96
t-223 -42q-130 0 -223 45t-147 98q-53 53 -90 151t-37 222v416q0 129 38 225q38 95 91 147t127 84q168 71 359 38q57 -9 130 -42t126 -85t90 -147t37 -220z" />
    <glyph glyph-name="Odieresis" unicode="&#xd6;" horiz-adv-x="1241" 
d="M790 1710q-24 0 -31 -5t-7 -26v-20q0 -19 7 -25t33 -6t32 5t7 26v20q0 19 -8 25q-9 6 -33 6zM450 1710q-24 0 -31 -5t-7 -26v-20q0 -19 7 -25t33 -6t32 5t8 26v20q-1 19 -9 25q-9 6 -33 6zM557 1683v-24q0 -61 -20 -79t-87 -17q-67 0 -85 16t-19 80v24q1 60 19 76
q18 17 85 17t87 -18t20 -75zM897 1683v-24q0 -61 -20 -79t-87 -17q-67 0 -85 17t-19 79v24q1 60 19 76q18 17 85 17t87 -18t20 -75zM601 1333q-46 0 -91 -7t-103 -33t-102 -67q-43 -42 -73 -121t-29 -183v-402q-1 -104 29 -184t74 -124t102 -71q92 -43 194 -43q103 0 177 35
q75 35 118 79t73 124t29 184v402q0 104 -30 183q-31 79 -74 121t-101 68t-103 32q-44 7 -90 7zM1100 930v-416q0 -129 -38 -227q-38 -97 -92 -151t-148 -96t-223 -42q-130 0 -223 45t-147 98q-53 53 -90 151t-37 222v416q0 129 38 225q38 95 91 147t127 84q168 71 359 38
q57 -9 130 -42t126 -85t90 -147t37 -220z" />
    <glyph glyph-name="multiply" unicode="&#xd7;" horiz-adv-x="862" 
d="M708 1073q13 0 40 -27t2 -57l-248 -248l248 -247q12 -14 12 -30t-27 -42q-14 -10 -27 -10t-28 12l-248 248l-248 -248q-16 -14 -30 -14t-34 21q-19 22 -20 35q0 13 15 28l247 247l-249 250q-26 31 0 55q26 25 43 25l26 -10l250 -250l248 248q15 14 28 14z" />
    <glyph glyph-name="Oslash" unicode="&#xd8;" horiz-adv-x="1241" 
d="M836 1432h26q35 0 35 -35q0 -8 -10 -35q47 -27 93 -72t83 -140t37 -220v-416q0 -129 -38 -227q-38 -97 -92 -151t-148 -96t-223 -42q-130 0 -223 45q-5 2 -9 5l-9 -21q-16 -27 -30 -27h-25q-23 0 -33 13t-10 23t4 17l18 45q-30 20 -68 58t-75 136t-37 222v416
q0 129 38 225q38 95 91 147t144 91t212 40q120 1 209 -30q14 29 40 29zM621 1333q-66 0 -111 -7t-103 -33t-102 -67q-43 -42 -73 -121t-29 -183v-402q0 -104 31 -189t87 -133l437 1110q-71 25 -137 25zM404 143q90 -45 195 -45t180 35t118 79t73 124t29 184v402
q0 104 -30 183q-31 79 -63 111t-58 48z" />
    <glyph glyph-name="Ugrave" unicode="&#xd9;" horiz-adv-x="1150" 
d="M416 1868q0 41 55 41q29 0 38 -9t23 -28l220 -279q10 -12 10 -23q0 -10 -10 -26t-42 -16t-61 35l-219 272q-14 17 -14 33zM983 1434h21q16 0 28 -12t12 -29v-879q0 -147 -49 -255t-127 -161q-143 -100 -293 -100h-24q-150 0 -297 100q-78 53 -126 161t-48 255v879
q0 16 11 28t30 13h20q17 0 29 -12t12 -29v-879q0 -121 39 -208t103 -130q111 -74 231 -78h18q117 4 230 80q61 41 100 128t39 208v879q0 17 12 29t29 12z" />
    <glyph glyph-name="Uacute" unicode="&#xda;" horiz-adv-x="1150" 
d="M670 1909q53 0 53 -47q0 -10 -14 -27l-220 -272q-29 -35 -61 -35t-41 15q-10 15 -10 27t10 23l219 279q8 8 10 12t8 9t7 7q2 2 8 5q6 4 10 3q5 -1 11 0t10 1zM983 1434h21q16 0 28 -12t12 -29v-879q0 -147 -49 -255t-127 -161q-143 -100 -293 -100h-24q-150 0 -297 100
q-78 53 -126 161t-48 255v879q0 16 11 28t30 13h20q17 0 29 -12t12 -29v-879q0 -121 39 -208t103 -130q111 -74 231 -78h18q117 4 230 80q61 41 100 128t39 208v879q0 17 12 29t29 12z" />
    <glyph glyph-name="Ucircumflex" unicode="&#xdb;" horiz-adv-x="1150" 
d="M547 1950q47 0 76 -39l247 -312q10 -12 11 -28q0 -37 -41 -37h-27q-23 0 -31 12l-231 297l-4 4l-228 -301q-8 -12 -28 -12h-27q-41 0 -41 37q0 12 10 28l238 312q29 39 76 39zM983 1434h21q16 0 28 -12t12 -29v-879q0 -147 -49 -255t-127 -161q-143 -100 -293 -100h-24
q-150 0 -297 100q-78 53 -126 161t-48 255v879q0 16 11 28t30 13h20q17 0 29 -12t12 -29v-879q0 -121 39 -208t103 -130q111 -74 231 -78h18q117 4 230 80q61 41 100 128t39 208v879q0 17 12 29t29 12z" />
    <glyph glyph-name="Udieresis" unicode="&#xdc;" horiz-adv-x="1150" 
d="M719 1710q-25 0 -32 -5t-7 -26v-20q0 -19 7 -25t33 -6t33 5t7 26v20q0 19 -8 25t-33 6zM379 1710q-25 0 -32 -5t-7 -26v-20q0 -19 7 -25t33 -6t33 5t7 26v20q0 19 -8 25t-33 6zM485 1683v-24q0 -61 -20 -79t-87 -17q-67 0 -85 16t-19 80v24q1 60 19 76q18 17 85 17
t87 -18t20 -75zM825 1683v-24q0 -61 -20 -79t-87 -17q-67 0 -85 17t-19 79v24q1 60 19 76q18 17 85 17t87 -18t20 -75zM983 1434h21q16 0 28 -12t12 -29v-879q0 -147 -49 -255t-127 -161q-143 -100 -293 -100h-24q-150 0 -297 100q-78 53 -126 161t-48 255v879q0 16 11 28
t30 13h20q17 0 29 -12t12 -29v-879q0 -121 39 -208t103 -130q111 -74 231 -78h18q117 4 230 80q61 41 100 128t39 208v879q0 17 12 29t29 12z" />
    <glyph glyph-name="Yacute" unicode="&#xdd;" horiz-adv-x="892" 
d="M567 1909q53 0 54 -47q0 -10 -15 -27l-219 -272q-29 -35 -61 -35t-46 22q-15 22 5 43l219 279q8 8 12 16t15 14q12 7 16 6t10 0t10 1zM-10 1393q0 39 41 41h24q20 0 35 -19l348 -598l330 604q8 13 33 13h22q25 0 33 -16t8 -25q0 -10 -6 -21v2l-346 -631q-16 -25 -23 -30
v-672q0 -17 -12 -29t-28 -12h-21q-16 0 -29 12q-12 12 -12 29v674q-10 10 -18 24l-373 633q-6 10 -6 21z" />
    <glyph glyph-name="Thorn" unicode="&#xde;" horiz-adv-x="1058" 
d="M195 1499h20q17 0 29 -12t12 -29v-1417q0 -17 -12 -29t-29 -12h-20q-16 0 -29 12q-12 12 -12 29v1417q0 16 12 29q13 12 29 12zM360 1208h175q145 0 268 -73q63 -39 103 -117t40 -184q0 -172 -102 -280t-293 -108h-182q-17 0 -29 12t-12 29v19q0 41 41 41h163
q311 0 312 278q0 145 -95 214t-219 69h-170q-18 0 -29 12t-12 29v18q0 41 41 41z" />
    <glyph glyph-name="germandbls" unicode="&#xdf;" horiz-adv-x="1056" 
d="M705 1225q1 -109 -85 -230t-92 -141t-6 -33q0 -88 127 -141q113 -37 219 -116q106 -80 107 -238q-1 -158 -101 -242t-294 -84h-183q-18 0 -29 12t-12 29v18q0 41 41 41h164q145 0 229 54t82 166q0 114 -81 176q-61 47 -179 90q-14 6 -22 8q-174 68 -174 202q0 64 24 105
q25 41 52 78q102 154 102 242t-56 132t-138 44t-129 -50q-46 -50 -46 -126v-1192q0 -17 -12 -29t-29 -12h-20q-16 0 -29 12q-12 12 -12 29l4 1118v96q0 133 86 195t195 61q109 1 203 -63t94 -211z" />
    <glyph glyph-name="agrave" unicode="&#xe0;" horiz-adv-x="1032" 
d="M383 1458q0 41 55 41q29 0 38 -9t24 -28l219 -278q10 -12 10 -24t-10 -26q-10 -16 -42 -16t-61 35l-219 272q-14 17 -14 33zM246 340q0 -242 234 -244q114 0 188 92q14 18 40 18t34 -27q8 -28 -5 -46q-88 -133 -253 -133t-250 88t-84 250v352q0 162 98 250t256 88
t254 -89t96 -249v-450q0 -80 13 -110t53 -40l22 -6q31 -6 31 -27v-22q0 -35 -41 -35q-100 0 -137 59t-37 183v448q0 117 -72 179q-72 63 -182 63t-185 -62q-74 -62 -73 -180v-350z" />
    <glyph glyph-name="aacute" unicode="&#xe1;" horiz-adv-x="1032" 
d="M637 1499q53 0 53 -47q0 -10 -14 -27l-219 -272q-29 -35 -61 -35t-42 16t-10 26q0 11 10 24l219 278q9 8 11 12t7 10q5 5 7 6t8 5t10 3t10 0t11 1zM246 340q0 -242 234 -244q114 0 188 92q14 18 40 18t34 -27q8 -28 -5 -46q-88 -133 -253 -133t-250 88t-84 250v352
q0 162 98 250t256 88t254 -89t96 -249v-450q0 -80 13 -110t53 -40l22 -6q31 -6 31 -27v-22q0 -35 -41 -35q-100 0 -137 59t-37 183v448q0 117 -72 179q-72 63 -182 63t-185 -62q-74 -62 -73 -180v-350z" />
    <glyph glyph-name="acircumflex" unicode="&#xe2;" horiz-adv-x="1032" 
d="M514 1540q47 0 76 -39l248 -311q10 -12 10 -29q0 -37 -41 -37h-27q-23 0 -30 13l-232 297l-4 4l-227 -301q-8 -12 -29 -13h-27q-41 0 -41 37q0 12 11 29l237 311q29 39 76 39zM246 340q0 -242 234 -244q114 0 188 92q14 18 40 18t34 -27q8 -28 -5 -46q-88 -133 -253 -133
t-250 88t-84 250v352q0 162 98 250t256 88t254 -89t96 -249v-450q0 -80 13 -110t53 -40l22 -6q31 -6 31 -27v-22q0 -35 -41 -35q-100 0 -137 59t-37 183v448q0 117 -72 179q-72 63 -182 63t-185 -62q-74 -62 -73 -180v-350z" />
    <glyph glyph-name="atilde" unicode="&#xe3;" horiz-adv-x="1032" 
d="M793 1409h49q27 0 26 -35q0 -115 -49 -173t-139 -58q-49 1 -92 25t-93 68t-79 62t-68 18q-40 0 -70 -33q-30 -34 -30 -107q0 -33 -31 -33h-31q-27 0 -26 41q0 106 52 164t134 57q82 0 174 -74q10 -8 38 -31t38 -30q45 -37 80 -37q98 0 98 139v12q1 25 19 25zM246 340
q0 -242 234 -244q114 0 188 92q14 18 40 18t34 -27q8 -28 -5 -46q-88 -133 -253 -133t-250 88t-84 250v352q0 162 98 250t256 88t254 -89t96 -249v-450q0 -80 13 -110t53 -40l22 -6q31 -6 31 -27v-22q0 -35 -41 -35q-100 0 -137 59t-37 183v448q0 117 -72 179
q-72 63 -182 63t-185 -62q-74 -62 -73 -180v-350z" />
    <glyph glyph-name="adieresis" unicode="&#xe4;" horiz-adv-x="1032" 
d="M686 1300q-25 0 -32 -5t-7 -25v-21q0 -20 7 -25t33 -5t33 5t7 25v21q0 18 -8 24t-33 6zM346 1300q-25 0 -32 -5t-7 -25v-21q0 -20 7 -25t33 -5t33 5t7 25v21q0 18 -8 24t-33 6zM345 1366q67 0 87 -17t21 -75v-25q-1 -61 -21 -79t-87 -17q-67 0 -85 16t-18 80v25
q0 60 18 76t85 16zM685 1366q67 0 87 -17t21 -75v-25q-1 -61 -21 -79t-87 -17q-67 0 -85 17t-18 79v25q0 60 18 76t85 16zM246 340q0 -242 234 -244q114 0 188 92q14 18 40 18t34 -27q8 -28 -5 -46q-88 -133 -253 -133t-250 88t-84 250v352q0 162 98 250t256 88t254 -89
t96 -249v-450q0 -80 13 -110t53 -40l22 -6q31 -6 31 -27v-22q0 -35 -41 -35q-100 0 -137 59t-37 183v448q0 117 -72 179q-72 63 -182 63t-185 -62q-74 -62 -73 -180v-350z" />
    <glyph glyph-name="aring" unicode="&#xe5;" horiz-adv-x="1032" 
d="M514 1413q-47 1 -80 -25t-33 -75v-99q0 -48 33 -74t80 -26t78 27t31 73v99q0 46 -31 73t-78 27zM246 340q0 -242 234 -244q114 0 188 92q14 18 40 18t34 -27q8 -28 -5 -46q-88 -133 -253 -133t-250 88t-84 250v352q0 162 94 247t237 91q-69 8 -117 48t-49 124v127
q1 84 54 129t146 45t143 -45t51 -129v-127q0 -84 -47 -126t-122 -47q134 -9 224 -93t90 -244v-450q0 -80 13 -110t53 -40l22 -6q31 -6 31 -27v-22q0 -35 -41 -35q-100 0 -137 59t-37 183v448q0 117 -72 179q-72 63 -182 63t-185 -62q-74 -62 -73 -180v-350z" />
    <glyph glyph-name="ae" unicode="&#xe6;" horiz-adv-x="1558" 
d="M479 1028q211 0 299 -149q94 150 309 149q156 0 252 -89t97 -249v-123q0 -88 -84 -88h-443q-18 1 -29 13t-12 28v17q0 16 12 28t29 13h430v110q0 117 -71 179q-72 63 -183 63t-183 -62t-73 -180v-352q0 -117 73 -179q72 -63 182 -63t183 60t72 174q-1 16 11 28t28 13h17
q18 -1 29 -13t12 -28q-2 -158 -98 -245t-253 -87q-156 0 -255 89t-99 249v356q0 117 -72 179q-73 63 -183 63t-184 -62t-73 -180v-350q1 -121 61 -182q60 -62 174 -62t187 92q14 18 40 18t36 -30q6 -25 -6 -43q-88 -133 -253 -133t-250 88t-85 250v352q0 162 98 250t258 88z
" />
    <glyph glyph-name="ccedilla" unicode="&#xe7;" horiz-adv-x="1034" 
d="M604 -362v57q0 47 -33 74t-90 27t-75 -7v2l69 205q-139 6 -235 92t-97 246v356q1 162 99 250t256 88t254 -89t96 -249q0 -39 -41 -39h-16q-39 0 -39 39q0 117 -72 178q-72 62 -182 62t-184 -62q-73 -62 -72 -180v-352q0 -117 72 -179q72 -63 184 -63t182 60t72 174
q0 16 11 28t28 13h16q17 -1 29 -13t12 -28q-4 -156 -100 -244q-75 -69 -186 -84l-42 -117q78 -6 124 -51t46 -123v-86q0 -82 -56 -128t-123 -46t-119 22t-77 50l47 78q44 -59 141 -62q37 0 69 26t32 75z" />
    <glyph glyph-name="egrave" unicode="&#xe8;" horiz-adv-x="1003" 
d="M369 1458q0 41 55 41q29 0 38 -9t23 -28l220 -278q10 -12 10 -24t-10 -26q-10 -16 -42 -16t-61 35l-219 272q-14 17 -14 33zM498 1028q158 0 254 -89t96 -249v-123q0 -88 -84 -88h-442q-18 1 -30 13t-11 28v17q0 16 11 28t30 13h430v110q0 117 -72 179q-72 63 -182 63
t-184 -62q-73 -62 -72 -180v-352q0 -117 72 -179q72 -63 183 -63t183 60t72 174q0 16 11 28t28 13h16q17 -1 29 -13t12 -28q-2 -158 -98 -245t-252 -87t-255 89t-100 249v356q1 162 99 250t256 88z" />
    <glyph glyph-name="eacute" unicode="&#xe9;" horiz-adv-x="1003" 
d="M623 1499q53 0 53 -47q0 -10 -14 -27l-220 -272q-28 -35 -60 -35t-42 16t-10 26q0 11 10 24l219 278q8 8 10 12q1 4 7 10q6 5 8 6t8 5t10 3t10 0t11 1zM498 1028q158 0 254 -89t96 -249v-123q0 -88 -84 -88h-442q-18 1 -30 13t-11 28v17q0 16 11 28t30 13h430v110
q0 117 -72 179q-72 63 -182 63t-184 -62q-73 -62 -72 -180v-352q0 -117 72 -179q72 -63 183 -63t183 60t72 174q0 16 11 28t28 13h16q17 -1 29 -13t12 -28q-2 -158 -98 -245t-252 -87t-255 89t-100 249v356q1 162 99 250t256 88z" />
    <glyph glyph-name="ecircumflex" unicode="&#xea;" horiz-adv-x="1003" 
d="M500 1540q47 0 75 -39l248 -311q10 -12 11 -29q0 -37 -41 -37h-27q-23 0 -31 13l-231 297l-4 4l-228 -301q-8 -12 -28 -13h-27q-41 0 -41 37q0 12 10 29l238 311q29 39 76 39zM498 1028q158 0 254 -89t96 -249v-123q0 -88 -84 -88h-442q-18 1 -30 13t-11 28v17
q0 16 11 28t30 13h430v110q0 117 -72 179q-72 63 -182 63t-184 -62q-73 -62 -72 -180v-352q0 -117 72 -179q72 -63 183 -63t183 60t72 174q0 16 11 28t28 13h16q17 -1 29 -13t12 -28q-2 -158 -98 -245t-252 -87t-255 89t-100 249v356q1 162 99 250t256 88z" />
    <glyph glyph-name="edieresis" unicode="&#xeb;" horiz-adv-x="1003" 
d="M672 1300q-25 0 -32 -5t-7 -25v-21q0 -20 7 -25t33 -5t33 5t7 25v21q0 18 -8 24t-33 6zM332 1300q-25 0 -32 -5t-7 -25v-21q0 -20 7 -25t33 -5t33 5t7 25v21q0 18 -8 24t-33 6zM331 1366q67 0 87 -17t20 -75v-25q0 -61 -20 -79t-87 -17q-67 0 -85 16t-19 80v25
q1 60 19 76t85 16zM671 1366q67 0 87 -17t20 -75v-25q0 -61 -20 -79t-87 -17q-67 0 -85 17t-19 79v25q1 60 19 76t85 16zM498 1028q158 0 254 -89t96 -249v-123q0 -88 -84 -88h-442q-18 1 -30 13t-11 28v17q0 16 11 28t30 13h430v110q0 117 -72 179q-72 63 -182 63t-184 -62
q-73 -62 -72 -180v-352q0 -117 72 -179q72 -63 183 -63t183 60t72 174q0 16 11 28t28 13h16q17 -1 29 -13t12 -28q-2 -158 -98 -245t-252 -87t-255 89t-100 249v356q1 162 99 250t256 88z" />
    <glyph glyph-name="igrave" unicode="&#xec;" horiz-adv-x="344" 
d="M37 1458q0 41 55 41q29 0 38 -9t24 -28l219 -278q10 -12 10 -24t-10 -26q-10 -16 -42 -16t-61 35l-219 272q-14 17 -14 33zM164 1026h16q16 0 28 -11t13 -30v-944q0 -17 -12 -29t-29 -12h-16q-16 0 -29 11q-12 11 -12 30v944q0 18 12 30q13 11 29 11z" />
    <glyph glyph-name="iacute" unicode="&#xed;" horiz-adv-x="344" 
d="M291 1499q53 0 53 -47q0 -10 -14 -27l-219 -272q-29 -35 -61 -35t-42 16t-10 26q0 11 10 24l219 278q9 8 11 12t7 10q5 5 7 6t8 5t10 3t10 0t11 1zM164 1026h16q16 0 28 -11t13 -30v-944q0 -17 -12 -29t-29 -12h-16q-16 0 -29 11q-12 11 -12 30v944q0 18 12 30
q13 11 29 11z" />
    <glyph glyph-name="icircumflex" unicode="&#xee;" horiz-adv-x="344" 
d="M168 1540q47 0 76 -39l248 -311q10 -12 10 -29q0 -37 -41 -37h-27q-23 0 -31 13l-231 297l-4 4l-227 -301q-8 -12 -29 -13h-27q-41 0 -41 37q0 12 11 29l237 311q29 39 76 39zM164 1026h16q16 0 28 -11t13 -30v-944q0 -17 -12 -29t-29 -12h-16q-16 0 -29 11
q-12 11 -12 30v944q0 18 12 30q13 11 29 11z" />
    <glyph glyph-name="idieresis" unicode="&#xef;" horiz-adv-x="344" 
d="M340 1300q-25 0 -32 -5t-7 -25v-21q0 -20 7 -25t33 -5t33 5t7 25v21q0 18 -8 24t-33 6zM0 1300q-25 0 -32 -5t-7 -25v-21q0 -20 7 -25t33 -5t33 5t7 25v21q0 18 -8 24t-33 6zM-1 1366q67 0 87 -17t20 -75v-25q0 -61 -20 -79t-87 -17q-67 0 -85 16t-18 80v25q0 60 18 76
t85 16zM339 1366q67 0 87 -17t20 -75v-25q0 -61 -20 -79t-87 -17q-67 0 -85 17t-18 79v25q0 60 18 76t85 16zM164 1026h16q16 0 28 -11t13 -30v-944q0 -17 -12 -29t-29 -12h-16q-16 0 -29 11q-12 11 -12 30v944q0 18 12 30q13 11 29 11z" />
    <glyph glyph-name="eth" unicode="&#xf0;" 
d="M289 336q1 -119 73 -180q72 -62 183 -62t183 62t71 180v495q-119 95 -242 95t-196 -62t-72 -178v-350zM836 1499h24q37 0 37 -39v-1126q0 -160 -97 -249t-255 -89t-256 88t-99 250v356q0 158 98 246t257 88q67 0 141 -25t113 -55v516q0 39 37 39z" />
    <glyph glyph-name="ntilde" unicode="&#xf1;" horiz-adv-x="980" 
d="M768 1409h49q27 0 27 -35q0 -115 -49 -173t-140 -58q-49 1 -92 25t-93 68t-79 62t-67 18t-70 -33q-31 -34 -31 -107q0 -33 -30 -33h-31q-27 0 -27 41q0 106 52 164q53 58 135 57q82 0 174 -74q10 -8 38 -31t37 -30q45 -37 80 -37q98 0 99 139v12q0 25 18 25zM162 1022h16
q16 0 28 -11t13 -30v-940q0 -17 -12 -29t-29 -12h-16q-16 0 -29 11q-12 11 -12 30v940q0 18 12 30q13 11 29 11zM508 1028q154 0 236 -81t81 -236v-670q0 -41 -39 -41h-16q-41 0 -41 41v647q0 244 -223 244q-117 0 -199 -92q-23 -18 -39 -19q-37 0 -39 41q0 16 9 33
q42 59 114 96t156 37z" />
    <glyph glyph-name="ograve" unicode="&#xf2;" horiz-adv-x="1032" 
d="M383 1458q0 41 55 41q29 0 38 -9t24 -28l219 -278q10 -12 10 -24t-10 -26q-10 -16 -42 -16t-61 35l-219 272q-14 17 -14 33zM240 334q0 -117 74 -179q74 -63 184 -63t182 62t72 180v356q0 117 -72 179q-72 63 -182 63t-185 -62q-74 -62 -73 -180v-356zM498 1028
q158 0 254 -89t96 -249v-356q0 -160 -96 -249t-253 -89t-256 89t-100 249v356q1 162 99 250t256 88z" />
    <glyph glyph-name="oacute" unicode="&#xf3;" horiz-adv-x="1032" 
d="M637 1499q53 0 53 -47q0 -10 -14 -27l-219 -272q-29 -35 -61 -35t-42 16t-10 26q0 11 10 24l219 278q9 8 11 12t7 10q5 5 7 6t8 5t10 3t10 0t11 1zM240 334q0 -117 74 -179q74 -63 184 -63t182 62t72 180v356q0 117 -72 179q-72 63 -182 63t-185 -62q-74 -62 -73 -180
v-356zM498 1028q158 0 254 -89t96 -249v-356q0 -160 -96 -249t-253 -89t-256 89t-100 249v356q1 162 99 250t256 88z" />
    <glyph glyph-name="ocircumflex" unicode="&#xf4;" horiz-adv-x="1032" 
d="M514 1540q47 0 76 -39l248 -311q10 -12 10 -29q0 -37 -41 -37h-27q-23 0 -30 13l-232 297l-4 4l-227 -301q-8 -12 -29 -13h-27q-41 0 -41 37q0 12 11 29l237 311q29 39 76 39zM240 334q0 -117 74 -179q74 -63 184 -63t182 62t72 180v356q0 117 -72 179q-72 63 -182 63
t-185 -62q-74 -62 -73 -180v-356zM498 1028q158 0 254 -89t96 -249v-356q0 -160 -96 -249t-253 -89t-256 89t-100 249v356q1 162 99 250t256 88z" />
    <glyph glyph-name="otilde" unicode="&#xf5;" horiz-adv-x="1032" 
d="M793 1409h49q27 0 26 -35q0 -115 -49 -173t-139 -58q-49 1 -92 25t-93 68t-79 62t-68 18q-40 0 -70 -33q-30 -34 -30 -107q0 -33 -31 -33h-31q-27 0 -26 41q0 106 52 164t134 57q82 0 174 -74q10 -8 38 -31t38 -30q45 -37 80 -37q98 0 98 139v12q1 25 19 25zM240 334
q0 -117 74 -179q74 -63 184 -63t182 62t72 180v356q0 117 -72 179q-72 63 -182 63t-185 -62q-74 -62 -73 -180v-356zM498 1028q158 0 254 -89t96 -249v-356q0 -160 -96 -249t-253 -89t-256 89t-100 249v356q1 162 99 250t256 88z" />
    <glyph glyph-name="odieresis" unicode="&#xf6;" horiz-adv-x="1032" 
d="M686 1300q-25 0 -32 -5t-7 -25v-21q0 -20 7 -25t33 -5t33 5t7 25v21q0 18 -8 24t-33 6zM346 1300q-25 0 -32 -5t-7 -25v-21q0 -20 7 -25t33 -5t33 5t7 25v21q0 18 -8 24t-33 6zM345 1366q67 0 87 -17t21 -75v-25q-1 -61 -21 -79t-87 -17q-67 0 -85 16t-18 80v25
q0 60 18 76t85 16zM685 1366q67 0 87 -17t21 -75v-25q-1 -61 -21 -79t-87 -17q-67 0 -85 17t-18 79v25q0 60 18 76t85 16zM240 334q0 -117 74 -179q74 -63 184 -63t182 62t72 180v356q0 117 -72 179q-72 63 -182 63t-185 -62q-74 -62 -73 -180v-356zM498 1028q158 0 254 -89
t96 -249v-356q0 -160 -96 -249t-253 -89t-256 89t-100 249v356q1 162 99 250t256 88z" />
    <glyph glyph-name="divide" unicode="&#xf7;" horiz-adv-x="1103" 
d="M540 956q-28 0 -36 -6t-8 -28v-21q0 -23 8 -29t37 -6t37 6t8 29v21q0 20 -9 27t-37 7zM496 246v-21q0 -23 8 -29t37 -6t37 6t8 29v21q0 20 -9 27t-37 7t-36 -6t-8 -28zM539 352q75 0 97 -19t21 -81v-27q-1 -70 -23 -88t-96 -18t-94 18t-20 88v27q0 66 20 83q21 17 95 17z
M539 1028q75 0 97 -19t21 -81v-27q-1 -70 -23 -88t-96 -18t-94 18t-20 88v27q0 66 20 83q21 17 95 17zM154 649h798q39 0 39 -39v-18q0 -16 -11 -28t-28 -13h-798q-18 0 -30 12q-11 12 -11 29v18q0 39 41 39z" />
    <glyph glyph-name="oslash" unicode="&#xf8;" horiz-adv-x="989" 
d="M494 1028q150 0 242 -72l28 41q14 27 39 27h26q23 0 30 -12t7 -22t-6 -19l-58 -87q50 -79 50 -194v-356q0 -160 -96 -249t-249 -89t-250 80l-34 -49q-16 -27 -30 -27h-25q-25 0 -35 13t-10 23t6 17l64 96q-46 76 -46 185v356q1 162 99 250t248 88zM500 932
q-109 0 -183 -62t-73 -180v-356q0 -50 13 -90l423 629q-71 59 -180 59zM756 334v356q0 57 -17 101l-427 -632q2 -2 5 -4q74 -63 185 -63q110 0 182 62t72 180z" />
    <glyph glyph-name="ugrave" unicode="&#xf9;" horiz-adv-x="1019" 
d="M356 1458q0 41 56 41q29 0 38 -9t23 -28l219 -278q10 -12 10 -24t-10 -26q-10 -16 -42 -16t-60 35l-219 272q-15 17 -15 33zM791 1024h20q39 0 39 -41v-743q0 -80 13 -110t52 -40l23 -6q31 -6 31 -27v-22q0 -35 -41 -35q-100 0 -138 59t-38 183v741q0 41 39 41zM184 1028
h17q41 0 41 -41v-647q0 -121 60 -182q60 -62 171 -62t191 88q18 23 38 23q39 0 39 -45q0 -18 -10 -33q-41 -57 -115 -93t-155 -36q-141 0 -229 89q-87 89 -87 249v649q0 41 39 41z" />
    <glyph glyph-name="uacute" unicode="&#xfa;" horiz-adv-x="1019" 
d="M610 1499q53 0 54 -47q0 -10 -15 -27l-219 -272q-28 -35 -60 -35t-42 16t-11 26q0 11 11 24l219 278q8 8 10 12t7 10q5 5 7 6q3 1 9 5t10 3t10 0t10 1zM791 1024h20q39 0 39 -41v-743q0 -80 13 -110t52 -40l23 -6q31 -6 31 -27v-22q0 -35 -41 -35q-100 0 -138 59t-38 183
v741q0 41 39 41zM184 1028h17q41 0 41 -41v-647q0 -121 60 -182q60 -62 171 -62t191 88q18 23 38 23q39 0 39 -45q0 -18 -10 -33q-41 -57 -115 -93t-155 -36q-141 0 -229 89q-87 89 -87 249v649q0 41 39 41z" />
    <glyph glyph-name="ucircumflex" unicode="&#xfb;" horiz-adv-x="1019" 
d="M488 1540q46 0 75 -39l248 -311q10 -12 10 -29q0 -37 -41 -37h-26q-23 0 -31 13l-231 297l-5 4l-227 -301q-8 -12 -29 -13h-26q-41 0 -41 37q0 12 10 29l238 311q30 39 76 39zM791 1024h20q39 0 39 -41v-743q0 -80 13 -110t52 -40l23 -6q31 -6 31 -27v-22q0 -35 -41 -35
q-100 0 -138 59t-38 183v741q0 41 39 41zM184 1028h17q41 0 41 -41v-647q0 -121 60 -182q60 -62 171 -62t191 88q18 23 38 23q39 0 39 -45q0 -18 -10 -33q-41 -57 -115 -93t-155 -36q-141 0 -229 89q-87 89 -87 249v649q0 41 39 41z" />
    <glyph glyph-name="udieresis" unicode="&#xfc;" horiz-adv-x="1019" 
d="M659 1300q-25 0 -31 -5t-7 -25v-21q0 -20 7 -25q6 -5 32 -5t33 5t7 25v21q0 18 -8 24t-33 6zM319 1300q-25 0 -31 -5t-7 -25v-21q0 -20 7 -25t33 -5q27 0 33 5t6 25v21q0 18 -8 24t-33 6zM318 1366q68 0 88 -17t20 -75v-25q0 -61 -20 -79t-88 -17q-68 0 -85 16
q-18 16 -18 80v25q0 60 18 76t85 16zM658 1366q67 0 87 -17t21 -75v-25q0 -61 -20 -79t-88 -17q-67 0 -85 17t-18 79v25q0 60 18 76t85 16zM791 1024h20q39 0 39 -41v-743q0 -80 13 -110t52 -40l23 -6q31 -6 31 -27v-22q0 -35 -41 -35q-100 0 -138 59t-38 183v741
q0 41 39 41zM184 1028h17q41 0 41 -41v-647q0 -121 60 -182q60 -62 171 -62t191 88q18 23 38 23q39 0 39 -45q0 -18 -10 -33q-41 -57 -115 -93t-155 -36q-141 0 -229 89q-87 89 -87 249v649q0 41 39 41z" />
    <glyph glyph-name="yacute" unicode="&#xfd;" horiz-adv-x="1040" 
d="M641 1499q53 0 53 -47q0 -10 -14 -27l-219 -272q-29 -35 -61 -35t-42 16t-10 26q0 11 10 24l220 278q8 8 10 12t7 10q5 5 7 6t8 5t10 3t11 0q6 1 10 1zM178 1028h17q41 0 41 -41v-647q0 -121 60 -182q60 -62 171 -62t190 88q18 23 39 23q39 0 39 -45q0 -18 -10 -33
q-41 -57 -115 -93t-155 -36q-141 0 -229 89q-87 89 -87 249v649q0 41 39 41zM784 1024h19q39 0 39 -41v-1094q0 -176 -93 -268t-253 -92t-247 85t-91 243q0 39 39 39h18q39 0 39 -39q4 -113 73 -172t175 -60q244 0 243 262v1096q0 41 39 41z" />
    <glyph glyph-name="thorn" unicode="&#xfe;" 
d="M164 1495h16q39 0 39 -39l-2 -516q94 88 252 88t256 -88t98 -250v-356q0 -158 -98 -248q-99 -90 -243 -90t-230 51v107q98 -60 214 -60t188 64t73 180v350q0 119 -73 180q-72 62 -180 62t-180 -56t-79 -163v-1184q0 -39 -39 -39h-18q-39 0 -39 39v1192l4 737q4 39 41 39z
" />
    <glyph glyph-name="ydieresis" unicode="&#xff;" horiz-adv-x="1040" 
d="M690 1300q-25 0 -32 -5t-7 -25v-21q0 -20 7 -25t33 -5t33 5t7 25v21q0 18 -8 24t-33 6zM350 1300q-25 0 -32 -5t-7 -25v-21q0 -20 7 -25t33 -5t33 5t7 25v21q0 18 -8 24t-33 6zM349 1366q67 0 87 -17t21 -75v-25q-1 -61 -21 -79t-87 -17q-67 0 -85 16t-18 80v25
q0 60 18 76t85 16zM689 1366q67 0 87 -17t21 -75v-25q-1 -61 -21 -79t-87 -17q-67 0 -85 17t-18 79v25q0 60 18 76t85 16zM178 1028h17q41 0 41 -41v-647q0 -121 60 -182q60 -62 171 -62t190 88q18 23 39 23q39 0 39 -45q0 -18 -10 -33q-41 -57 -115 -93t-155 -36
q-141 0 -229 89q-87 89 -87 249v649q0 41 39 41zM784 1024h19q39 0 39 -41v-1094q0 -176 -93 -268t-253 -92t-247 85t-91 243q0 39 39 39h18q39 0 39 -39q4 -113 73 -172t175 -60q244 0 243 262v1096q0 41 39 41z" />
    <glyph glyph-name="dotlessi" unicode="&#x131;" horiz-adv-x="344" 
d="M164 1026h16q16 0 28 -11t13 -30v-944q0 -17 -12 -29t-29 -12h-16q-16 0 -29 11q-12 11 -12 30v944q0 18 12 30q13 11 29 11z" />
    <glyph glyph-name="Lslash" unicode="&#x141;" 
d="M88 807q27 0 37 -31q4 -8 4 -20q0 -25 -29 -33l-118 -70q-8 -2 -15 -2q-29 0 -33 29q-6 10 -6 26t27 31l117 68q8 2 16 2zM559 1026q27 0 37 -31q4 -8 4 -20q0 -25 -29 -33l-200 -98q-41 -8 -47 26l-5 7q-10 35 25 51l199 96q8 2 16 2zM207 1434h20q17 0 29 -12t12 -29
v-1293h684q39 0 39 -41v-18q0 -17 -11 -29t-28 -12h-702q-84 0 -84 88v1305q0 17 12 29t29 12z" />
    <glyph glyph-name="lslash" unicode="&#x142;" horiz-adv-x="641" 
d="M135 870q14 0 26 -23q11 -24 11 -38t-25 -25l-59 -24q-12 -4 -30 -4t-29 30q-4 10 -4 26t26 30l60 24q10 4 24 4zM266 1495h17q39 0 39 -39v-502l163 70q16 6 38 -4t22 -41t-25 -39l-198 -84v-541q0 -219 186 -219h33q16 0 27 -12t12 -27v-16q0 -41 -74 -41
q-139 0 -211 80t-70 233v1143q0 39 41 39z" />
    <glyph glyph-name="OE" unicode="&#x152;" horiz-adv-x="2265" 
d="M203 520q-1 -104 29 -184t74 -124t102 -71q92 -43 194 -43q103 0 177 35q75 35 118 79q89 91 100 255v507q-20 240 -203 319q-91 40 -165 40t-119 -7t-103 -33t-102 -67q-43 -42 -73 -121t-29 -183v-402zM997 1354q1 41 19 60t63 20h715q16 0 28 -12t13 -29v-19
q0 -18 -12 -29t-29 -12h-694v-1233h694q16 0 28 -11t13 -30v-18q0 -17 -12 -29t-29 -12h-717q-49 0 -64 22t-16 60v85q-56 -74 -162 -121q-106 -48 -236 -48t-223 45t-147 98q-53 53 -90 151t-37 222v416q0 129 38 225q38 95 91 147t127 84q168 71 359 38q57 -9 142 -47
t138 -107v84zM1223 795h438q17 -1 29 -13t12 -28v-19q0 -41 -41 -41h-438q-41 0 -41 41v19q0 16 12 28t29 13z" />
    <glyph glyph-name="oe" unicode="&#x153;" horiz-adv-x="1560" 
d="M219 690v-356q0 -117 74 -179q75 -63 185 -63t182 62t71 180v356q0 117 -72 179q-73 63 -183 63t-184 -62t-73 -180zM1087 -4q-209 0 -306 150q-20 -34 -50 -61q-96 -89 -253 -89t-256 89t-99 249v356q0 162 98 250t256 88t254 -89q29 -27 49 -60q21 34 51 61
q98 88 256 88t254 -89t97 -249v-123q0 -88 -84 -88h-443q-18 1 -29 13t-12 28v17q0 16 12 28t29 13h430v110q0 117 -71 179q-72 63 -183 63t-183 -62t-73 -180v-352q0 -117 73 -179q72 -63 182 -63t183 60t72 174q-1 16 11 28t28 13h17q18 -1 29 -13t12 -28
q-2 -158 -98 -245t-253 -87z" />
    <glyph glyph-name="Scaron" unicode="&#x160;" horiz-adv-x="1140" 
d="M836 1829q37 0 41 -44q0 -11 -13 -22l-219 -215q-2 -2 -10 -9t-19 -18t-45 -12h-4q-33 -1 -44 11t-19 19t-10 9l-220 215q-12 9 -12 21t4 20q10 25 37 25t57 -24t205 -183l4 -4l4 4q176 159 206 183t57 24zM969 999q-15 -1 -27 11t-14 28q-6 156 -104 227t-241 71
q-142 0 -225 -68q-82 -68 -82 -167t58 -159q80 -80 318 -173t323 -196q65 -78 65 -223t-117 -249q-118 -103 -335 -103q-162 0 -305 88q-76 47 -124 132t-53 196q0 43 41 43h19q37 0 41 -39q4 -90 45 -157t102 -99q119 -64 261 -64t234 75q91 75 91 189t-66 168
q-66 56 -147 95q-80 39 -272 116q-147 66 -214 151t-67 217t109 230q109 99 296 99t315 -100t136 -296q0 -16 -12 -29t-29 -14h-20z" />
    <glyph glyph-name="scaron" unicode="&#x161;" horiz-adv-x="931" 
d="M772 1375q0 -11 -12 -21l-219 -215q-3 -1 -11 -9l-19 -19t-44 -11h-4q-33 0 -44 11t-19 18t-11 10l-219 215q-12 10 -12 21t4 20q10 25 37 25t57 -24t205 -184l4 -4l4 4q176 160 206 184t56 23q41 0 41 -44zM468 1028q157 0 241 -77t84 -226q1 -15 -11 -27t-28 -12h-19
q-16 0 -27 11t-12 26q0 207 -231 207q-107 0 -161 -51t-54 -129t52 -124t198 -75t227 -90q82 -61 82 -183t-89 -203t-248 -81t-257 81t-98 238q0 43 41 43h16q39 0 39 -41q0 -223 264 -223q119 0 177 54t58 134t-60 116q-62 36 -215 69t-219 105t-65 186q0 116 79 194
t236 78z" />
    <glyph glyph-name="Ydieresis" unicode="&#x178;" horiz-adv-x="892" 
d="M616 1710q-26 0 -32 -5t-6 -26v-20q0 -19 7 -25t33 -6t32 5q7 5 7 26v20q0 19 -8 25t-33 6zM276 1710q-26 0 -32 -5t-6 -26v-20q0 -19 7 -25t33 -6t32 5t7 26v20q0 19 -8 25t-33 6zM383 1659q-1 -61 -21 -79t-87 -17q-67 0 -85 16t-18 80v24q0 60 18 76q18 17 85 17
t87 -18t21 -75v-24zM723 1659q-1 -61 -21 -79t-87 -17q-67 0 -85 17t-18 79v24q0 60 18 76q18 17 85 17t87 -18t21 -75v-24zM-10 1393q0 39 41 41h24q20 0 35 -19l348 -598l330 604q8 13 33 13h22q25 0 33 -16t8 -25q0 -10 -6 -21v2l-346 -631q-16 -25 -23 -30v-672
q0 -17 -12 -29t-28 -12h-21q-16 0 -29 12q-12 12 -12 29v674q-10 10 -18 24l-373 633q-6 10 -6 21z" />
    <glyph glyph-name="Zcaron" unicode="&#x17d;" horiz-adv-x="1130" 
d="M830 1829q26 0 36 -25q4 -8 4 -19t-12 -22l-219 -215q-21 -21 -35 -30q-14 -8 -39 -9h-4q-33 0 -48 16t-26 23l-219 215q-12 9 -12 21t4 20q10 25 37 25t57 -24t205 -183l4 -4l4 4q176 159 206 183q31 24 57 24zM88 76q0 27 33 76v2l745 1179h-762q-16 -1 -28 11t-13 30
v19q1 16 13 28t28 13h799q86 0 86 -72q0 -37 -28 -74v2l-7 -6l2 -4l-749 -1180h805q16 0 28 -11t13 -30v-18q-1 -17 -13 -29t-28 -12h-842q-82 0 -82 76z" />
    <glyph glyph-name="zcaron" unicode="&#x17e;" horiz-adv-x="933" 
d="M772 1375q0 -11 -12 -21l-219 -215q-3 -1 -11 -9l-19 -19t-44 -11h-4q-33 0 -44 11t-19 18t-11 10l-219 215q-12 10 -12 21t4 20q10 25 37 25t57 -24t205 -184l4 -4l4 4q176 160 206 184t56 23q41 0 41 -44zM152 1024h542q82 0 82 -72q0 -31 -35 -78l-516 -778h523
q39 0 38 -39v-16q0 -41 -38 -41h-562q-35 0 -55 20t-20 52t34 80l510 776h-503q-39 0 -39 39v16q0 41 39 41z" />
    <glyph glyph-name="florin" unicode="&#x192;" horiz-adv-x="866" 
d="M434 776h273q25 0 24 -41v-18q0 -39 -24 -39h-273q-25 0 -24 39v18q-1 41 24 41zM129 776h119q6 0 10 -2l23 295q13 176 79 271t236 96q49 0 116 -12q66 -12 74 -19q8 -8 9 -33v-47q0 -23 -27 -14q-80 27 -173 27t-145 -66q-52 -64 -65 -234l-92 -1392q-2 -37 -64 -37
q-29 0 -44 7t-13 30l78 1032h-121q-27 0 -27 39v18q0 41 27 41z" />
    <glyph glyph-name="circumflex" unicode="&#x2c6;" horiz-adv-x="903" 
d="M446 1540q46 0 76 -39l248 -311q10 -12 10 -29q0 -37 -41 -37h-26q-23 0 -31 13l-231 297l-5 4l-227 -301q-8 -12 -29 -13h-26q-41 0 -41 37q0 12 10 29l238 311q29 39 75 39z" />
    <glyph glyph-name="caron" unicode="&#x2c7;" 
d="M612 1100h-4q-33 0 -44 11t-19 18t-10 10l-220 215q-12 10 -12 21t4 20q10 25 37 25q26 0 56 -24t206 -184l4 -4l4 4q176 160 206 184t57 23q37 0 41 -44q0 -11 -13 -21q-219 -215 -228 -223l-20 -20t-45 -11z" />
    <glyph glyph-name="breve" unicode="&#x2d8;" 
d="M922 1382q0 -117 -119 -194q-84 -55 -152 -55q-67 0 -117 17t-119 89t-69 143q0 6 2 9l64 28q4 2 9 2t7 -8q23 -74 80 -118t127 -44t126 44t79 118q2 8 7 8t9 -2l64 -28q2 -3 2 -9z" />
    <glyph glyph-name="dotaccent" unicode="&#x2d9;" 
d="M585 1376q73 0 95 -19t22 -81v-27q0 -70 -22 -88t-96 -18q-72 0 -92 18t-21 88v27q1 66 21 83t93 17z" />
    <glyph glyph-name="ring" unicode="&#x2da;" 
d="M578 1413q-46 1 -80 -25q-33 -26 -33 -75v-99q0 -48 33 -74t80 -26q48 0 78 27t30 73v99q0 46 -31 73t-77 27zM578 1501q94 0 144 -45t50 -129v-127q0 -84 -50 -129t-143 -45t-147 45q-53 45 -53 129v127q0 84 53 129q52 45 146 45z" />
    <glyph glyph-name="ogonek" unicode="&#x2db;" horiz-adv-x="761" 
d="M422 -258q51 0 100 20q6 0 6 -38t-4 -39q-41 -21 -130 -21t-140 49t-51 111q-1 62 31 116t62 82q84 78 107 76q11 0 27 -15t6 -24q-135 -125 -135 -209q0 -108 121 -108z" />
    <glyph glyph-name="tilde" unicode="&#x2dc;" 
d="M850 1409h49q27 0 27 -35q0 -115 -49 -173t-140 -58q-49 1 -92 25t-93 68t-79 62t-67 18t-70 -33q-31 -34 -31 -107q0 -33 -31 -33h-30q-27 0 -27 41q0 106 52 164q53 58 135 57q82 0 174 -74q10 -8 38 -31t37 -30q45 -37 80 -37q98 0 98 139v12q1 25 19 25z" />
    <glyph glyph-name="hungarumlaut" unicode="&#x2dd;" 
d="M195 1133q-35 0 -35 36q0 16 12 33l260 338q8 6 94 21h15q37 0 37 -37q0 -18 -15 -35l-301 -330q-27 -27 -63 -26h-4zM834 1561q37 0 36 -37q0 -18 -14 -35l-301 -330q-27 -27 -63 -26h-5q-27 -1 -33 23t11 46l260 338q8 6 94 21h15z" />
    <glyph glyph-name="pi" unicode="&#x3c0;" 
d="M125 989q-29 0 -31 48t35 48h920q41 0 41 -48t-37 -48h-928zM373 899h16q17 0 29 -11t12 -30v-817q0 -17 -12 -29t-29 -12h-16q-39 0 -39 41v817q0 41 39 41zM756 897h16q16 0 28 -11t13 -30v-616q0 -88 29 -119t82 -35t61 -8t8 -21v-22q0 -23 -16 -31q-10 -4 -45 -4
q-121 0 -168 55t-47 187v614q0 41 39 41z" />
    <glyph glyph-name="endash" unicode="&#x2013;" horiz-adv-x="466" 
d="M80 791h305q17 1 29 -11t12 -26v-21q0 -16 -12 -27t-29 -12h-305q-39 0 -39 39v21q-1 16 11 26t28 11z" />
    <glyph glyph-name="emdash" unicode="&#x2014;" horiz-adv-x="933" 
d="M109 791h702q15 -1 27 -11t12 -26v-21q0 -39 -39 -39h-702q-39 0 -39 39v21q0 16 12 26t27 11z" />
    <glyph glyph-name="quoteleft" unicode="&#x2018;" horiz-adv-x="483" 
d="M254 1126q-20 0 -21 11l-61 -140q-4 -12 -4 -19t16 -7h107q18 20 18 33v108q0 10 -4 12t-22 2h-29zM315 1499h54q25 -4 12 -29l-119 -266h70q59 0 59 -59v-191q0 -39 -11 -52t-44 -13h-209q-29 0 -47 26q-8 17 -8 33t14 53l205 469q10 29 24 29z" />
    <glyph glyph-name="quoteright" unicode="&#x2019;" horiz-adv-x="483" 
d="M229 1262q16 0 21 -13l61 142q4 12 4 19t-16 7h-106q-15 0 -17 -4t-2 -16v-121q0 -10 4 -12t23 -2h28zM147 1499h209q29 0 42 -21q14 -22 14 -38t-15 -54l-204 -468q-10 -29 -25 -29h-53q-25 4 -13 29l117 266h-67q-59 0 -60 59v191q0 39 11 52t44 13z" />
    <glyph glyph-name="quotesinglbase" unicode="&#x201a;" horiz-adv-x="135" 
d="M160 285h26q39 0 33 -39q-35 -156 -117 -498q-6 -27 -39 -27h-24q-41 0 -35 39l117 498q8 27 39 27z" />
    <glyph glyph-name="quotedblleft" unicode="&#x201c;" horiz-adv-x="0" 
d="M254 1126q-20 0 -21 11l-61 -140q-4 -12 -4 -19t16 -7h107q18 20 18 33v108q0 10 -4 12t-22 2h-29zM315 1499h54q25 -4 12 -29l-119 -266h70q59 0 59 -59v-191q0 -39 -11 -52t-44 -13h-209q-29 0 -47 26q-8 17 -8 33t14 53l205 469q10 29 24 29zM621 1126q-20 0 -21 11
l-61 -140q-4 -12 -4 -19t16 -7h106q18 20 19 33v108q0 10 -4 12t-23 2h-28zM682 1499h53q25 -4 13 -29l-119 -266h69q59 0 60 -59v-191q0 -39 -12 -52t-44 -13h-208q-29 0 -48 26q-8 17 -8 33t15 53l204 469q11 29 25 29z" />
    <glyph glyph-name="quotedblright" unicode="&#x201d;" horiz-adv-x="0" 
d="M229 1262q16 0 21 -13l61 142q4 12 4 19t-16 7h-106q-15 0 -17 -4t-2 -16v-121q0 -10 4 -12t23 -2h28zM147 1499h209q29 0 42 -21q14 -22 14 -38t-15 -54l-204 -468q-10 -29 -25 -29h-53q-25 4 -13 29l117 266h-67q-59 0 -60 59v191q0 39 11 52t44 13zM582 1262
q16 0 20 -13l62 142q4 12 4 19t-17 7h-106q-15 0 -17 -4t-2 -16v-121q0 -10 4 -12t23 -2h29zM500 1499h209q29 0 47 -26q8 -17 8 -33t-14 -54l-205 -468q-10 -29 -25 -29h-53q-25 4 -12 29l116 266h-67q-59 0 -60 59v191q0 39 12 52t44 13z" />
    <glyph glyph-name="quotedblbase" unicode="&#x201e;" horiz-adv-x="448" 
d="M176 285h27q39 0 33 -39q-35 -156 -117 -498q-6 -27 -39 -27h-25q-41 0 -35 39l117 498q8 27 39 27zM365 285h26q39 0 33 -39q-35 -156 -117 -498q-6 -27 -39 -27h-24q-41 0 -35 39l117 498q8 27 39 27z" />
    <glyph glyph-name="dagger" unicode="&#x2020;" horiz-adv-x="905" 
d="M164 967h237v428q0 39 39 39h25q39 0 39 -39v-428h239q15 -1 27 -11t12 -26v-27q0 -39 -39 -39h-239v-1073q0 -17 -11 -29t-28 -12h-25q-16 0 -27 12t-12 29v1073h-237q-18 0 -30 12t-11 27v27q-3 14 11 26t30 11z" />
    <glyph glyph-name="daggerdbl" unicode="&#x2021;" horiz-adv-x="905" 
d="M164 967h237v428q0 39 39 39h25q39 0 39 -39v-428h239q15 -1 27 -11t12 -26v-27q0 -39 -39 -39h-239v-407h239q15 -1 27 -11t12 -26v-27q0 -39 -39 -39h-239v-563q0 -17 -11 -29t-28 -12h-25q-16 0 -27 12t-12 29v563h-237q-18 0 -30 12t-11 27v29q0 14 12 24t29 11h237
v407h-237q-18 0 -30 12t-11 27v29q1 14 13 24t28 11z" />
    <glyph glyph-name="bullet" unicode="&#x2022;" 
d="M633 768q-76 0 -127 -51t-51 -127t51 -127t127 -51t127 51t51 127t-51 127t-127 51zM633 881q121 0 206 -86t85 -205t-85 -205t-206 -86t-206 86t-85 205t85 205t206 86z" />
    <glyph glyph-name="ellipsis" unicode="&#x2026;" horiz-adv-x="1081" 
d="M154 121v-21q0 -22 8 -28t37 -6t37 6t8 28v21q-1 20 -10 27q-8 8 -36 8t-36 -6t-8 -29zM197 227q75 0 97 -19t21 -81v-27q-1 -70 -23 -88t-96 -18t-94 18t-20 88v27q0 66 20 83q21 17 95 17zM838 121v-21q0 -22 8 -28t37 -6t37 6t8 28v21q0 20 -9 27q-9 8 -37 8t-36 -6
t-8 -29zM881 227q75 0 97 -19t21 -81v-27q-1 -70 -23 -88t-96 -18t-94 18t-20 88v27q0 66 20 83q21 17 95 17zM496 121v-21q0 -22 8 -28t37 -6t37 6t8 28v21q0 20 -9 27q-9 8 -37 8t-36 -6t-8 -29zM539 227q75 0 97 -19t21 -81v-27q-1 -70 -23 -88t-96 -18t-94 18t-20 88v27
q0 66 20 83q21 17 95 17z" />
    <glyph glyph-name="perthousand" unicode="&#x2030;" horiz-adv-x="1714" 
d="M1513 438q1 100 -109 100t-110 -100v-239q0 -101 110 -101t109 101v239zM1196 426q0 211 208 211t208 -211v-215q0 -211 -208 -211t-208 211v215zM420 1235q0 100 -110 100t-109 -100v-240q-1 -100 109 -100t110 100v240zM102 1223q0 211 208 211t208 -211v-215
q0 -211 -208 -211t-208 211v215zM1044 438q0 100 -110 100t-109 -100v-239q0 -101 110 -101t109 101v239zM727 426q0 211 208 211t208 -211v-215q0 -211 -208 -211t-208 211v215zM760 1499h24q48 0 39 -47l-268 -1460q-6 -33 -39 -33h-20q-20 0 -32 13q-11 13 -9 34
l264 1460q6 33 41 33z" />
    <glyph glyph-name="guilsinglleft" unicode="&#x2039;" horiz-adv-x="710" 
d="M707 1038v-6l-11 -20q-8 -8 -10 -8q0 -4 -4 -5l-461 -344l469 -350q0 -4 4 -4l13 -22l2 -13q0 -20 -17 -37q0 -6 -22 -12h-11q-25 0 -26 8l-471 355l-12 8l-13 14q0 2 -7 9t-7 20l-2 14v10q0 29 12 43t31 31l469 356l24 7h7l4 -2h4q18 -8 22 -17l11 -20v-2q2 -4 2 -13z
" />
    <glyph glyph-name="guilsinglright" unicode="&#x203a;" horiz-adv-x="710" 
d="M41 217q-41 0 -41 58q0 17 27 36l458 344l-458 344q-25 18 -25 41t20 43t54 2l469 -356q43 -33 43 -76t-41 -73l-471 -355q-10 -8 -35 -8z" />
    <glyph glyph-name="fraction" unicode="&#x2044;" 
d="M16 0q-31 0 -30 31q0 12 8 22l1163 1432q20 27 43 26h6q23 0 31 -13t8 -22t-8 -18l-1161 -1431q-16 -27 -37 -27h-23z" />
    <glyph glyph-name="Euro" unicode="&#x20ac;" horiz-adv-x="1343" 
d="M76 858h86v70q0 127 37 223t90 147t143 93q90 43 212 43t216 -42t148 -88t91 -124q36 -78 36 -176q0 -43 -39 -43h-19q-14 0 -27 11t-14 25q0 96 -43 167t-108 106q-125 63 -236 63q-178 0 -289 -108q-42 -43 -70 -122t-28 -181v-64h567q17 0 29 -12t12 -29v-18
q0 -39 -41 -39h-567v-98h567q41 0 41 -39v-21q0 -39 -41 -39h-567v-53q0 -127 42 -216t110 -128q119 -70 235 -70q272 0 363 221q29 74 28 172q0 15 12 27t27 12h17q39 0 39 -39q0 -117 -36 -207t-90 -144q-55 -52 -147 -96t-215 -44t-215 44t-145 96t-89 146t-36 218v61
h-86q-39 0 -39 39v21q0 39 39 39h86v98h-86q-39 0 -39 39v18q0 16 11 29q12 12 28 12z" />
    <glyph glyph-name="trademark" unicode="&#x2122;" horiz-adv-x="2355" 
d="M2126 1440q34 0 58 -22t24 -66v-1311q0 -17 -12 -29t-29 -12h-19q-18 0 -29 12t-12 29v1219l-356 -881q-23 -53 -74 -60q-59 0 -84 58l-376 891v-1227q-1 -17 -13 -29t-28 -12h-21q-16 0 -28 12q-11 12 -11 29v1311q0 88 80 88q55 0 82 -62l393 -927l373 927q29 62 82 62
zM51 1434h910q18 0 29 -12t11 -29v-23q0 -37 -40 -37h-910q-41 0 -41 37v23q0 17 12 29t29 12zM494 1278h20q41 0 41 -39v-1198q0 -17 -11 -29t-30 -12h-20q-18 0 -30 12q-11 12 -11 29v1198q0 39 41 39z" />
    <glyph glyph-name="product" unicode="&#x220f;" 
d="M1243 1499q39 0 39 -37v-26q0 -39 -39 -39h-190v-1544q1 -17 -11 -29t-28 -12h-25q-16 0 -27 12t-12 29v1544h-635v-1544q0 -17 -11 -29t-28 -12h-24q-16 0 -28 12q-11 12 -11 29v1544h-164q-18 0 -31 11q-12 11 -10 28v26q-2 14 11 26q14 11 30 11h1194z" />
    <glyph glyph-name="summation" unicode="&#x2211;" horiz-adv-x="1024" 
d="M57 1489h910q18 0 29 -12t12 -29v-23q0 -37 -41 -36h-910q-41 0 -41 36v23q0 16 12 28t29 13zM57 0h910q18 0 29 -12t12 -29v-22q0 -37 -41 -37h-910q-41 0 -41 37v22q0 17 12 29t29 12zM129 1331q16 0 29 -12l616 -600q10 -15 10 -29t-12 -26l-614 -594q-29 -29 -65 7
q-19 19 -19 35t12 29l571 551l-571 555q-12 13 -12 29t19 36q20 19 36 19z" />
    <glyph glyph-name="minus" unicode="&#x2212;" horiz-adv-x="940" 
d="M72 791h798q39 0 39 -39v-19q0 -16 -11 -28t-28 -13h-798q-18 0 -30 12t-11 29v19q0 39 41 39z" />
    <glyph glyph-name="radical" unicode="&#x221a;" 
d="M596 -176h-25q-18 0 -22 10l-313 741l-228 -129q-12 -8 -20 -4t-23 33q-14 29 -14 33t4 8l326 191q20 12 26 -2l281 -662l704 1630q12 29 25 29q4 0 10 -2q61 -18 61 -34t-6 -30l-768 -1802q-4 -10 -18 -10z" />
    <glyph glyph-name="infinity" unicode="&#x221e;" horiz-adv-x="1216" 
d="M920 948h-64q-86 0 -201 -164q12 -14 39 -56t44 -64t50 -44t68 -22h64q76 0 120 47t43 130t-43 128t-120 45zM360 946h-63q-76 0 -120 -47t-44 -130t43 -128t121 -45h63q61 0 111 63q37 43 80 111q-4 6 -24 38t-43 61q-60 77 -124 77zM852 1024h72q110 0 176 -67t66 -183
t-68 -184q-66 -70 -174 -70h-72q-78 0 -108 22t-38 28q-13 9 -79 94l-27 36q-55 -88 -106 -134t-129 -46h-72q-109 0 -175 67t-67 183q0 116 67 184q67 70 175 70h72q57 0 103 -27t70 -55t66 -90q58 84 114 128t134 44z" />
    <glyph glyph-name="integral" unicode="&#x222b;" horiz-adv-x="798" 
d="M676 1346q-27 0 -35 -6t-8 -29v-29q0 -16 8 -21t36 -5t36 6t10 28v21q0 20 -10 26l-29 9h-8zM122 92q-28 0 -36 -6t-8 -29l-2 -20q0 -20 6 -29l33 -6h4q31 0 39 6t8 29l2 20q0 21 -9 28t-37 7zM305 1097q0 -38 28 -127t104 -240t115 -270t39 -177q1 -58 -3 -99
q-12 -124 -106 -200t-244 -76q-57 0 -122 12t-71 17q-41 13 -41 69v31l2 26q2 65 22 83t95 18t97 -20t20 -81l-2 -26q0 -29 -7 -51h17q57 0 109 15q53 15 101 73t48 147q0 91 -37 193t-111 264q-139 305 -139 432q0 25 2 35q19 133 109 212t245 79q96 0 183 -27l8 -6
q29 -16 29 -86v-27q-2 -70 -26 -88q-23 -18 -97 -18t-92 17t-18 50t-1 39v27q0 16 4 41q-260 -9 -260 -261z" />
    <glyph glyph-name="approxequal" unicode="&#x2248;" 
d="M928 692h49q27 0 27 -35q0 -113 -62 -172t-147 -59q-86 0 -168 44t-156 87t-121 43t-87 -33t-40 -104q0 -37 -30 -37h-31q-27 0 -27 37q-1 105 61 165t151 60t229 -86t198 -86q135 0 135 141q1 35 19 35zM928 1040h49q27 0 27 -34q0 -113 -62 -172q-62 -60 -147 -60
q-86 0 -168 44t-156 87t-121 43t-87 -33t-40 -104q0 -37 -30 -37h-31q-27 0 -27 37q-1 105 61 165t151 60t229 -86t198 -86q135 0 135 142q1 34 19 34z" />
    <glyph glyph-name="notequal" unicode="&#x2260;" horiz-adv-x="1185" 
d="M866 1432q35 0 35 -35q0 -8 -4 -19l-184 -465h280q39 0 39 -39v-18q0 -41 -39 -41h-319l-61 -156h380q39 0 39 -38v-19q0 -16 -11 -28t-28 -13h-419l-212 -534q-16 -27 -30 -27h-25q-23 0 -33 13t-10 23t4 17l200 508h-273q-18 0 -30 12q-11 12 -11 29v19q0 39 41 38h312
l61 156h-373q-41 0 -41 41v18q0 39 41 39h412l194 492q14 27 39 27h26z" />
    <glyph glyph-name="lessequal" unicode="&#x2264;" horiz-adv-x="1171" 
d="M156 143h872q41 0 41 -49t-41 -49h-872q-39 0 -39 49t39 49zM1006 1038q12 0 22 -6q29 -8 29 -46t-29 -48l-809 -283l813 -270q18 -5 26 -25t-1 -43q-14 -33 -36 -33t-38 7l-840 289q-41 16 -41 74t43 75l838 303q11 6 23 6z" />
    <glyph glyph-name="greaterequal" unicode="&#x2265;" horiz-adv-x="1171" 
d="M143 143h873q39 0 39 -49t-39 -49h-873q-41 0 -41 49t41 49zM1069 654q0 -58 -41 -74l-840 -289q-16 -6 -38 -6t-35 32q-8 23 -1 42t25 26l813 270l-809 283q-29 10 -28 48q0 38 28 46q11 6 23 6t22 -6l838 -303q43 -17 43 -75z" />
    <glyph glyph-name="lozenge" unicode="&#x25ca;" horiz-adv-x="1409" 
d="M715 997l-467 -469l475 -473l461 475zM714 1100q26 0 56 -27l490 -489q45 -56 0 -105l-486 -502q-50 -50 -104 0l-496 496q-27 31 -27 57t23 48l496 499q22 23 48 23z" />
    <glyph glyph-name="two.dnom" horiz-adv-x="1024" 
d="M657 678q0 139 -157 139q-129 0 -168 -123q-4 -14 -25 -14h-14q-31 0 -31 18q0 27 6 33q25 76 89 118q65 42 160 42q95 -1 159 -61t63 -154q0 -127 -155 -326q-31 -39 -129 -155l-99 -117h367q27 0 27 -25v-28q0 -25 -27 -25h-424q-55 0 -55 47q0 23 73 109
q172 201 205 245q135 175 135 277z" />
    <glyph glyph-name="four.dnom" 
d="M639 383v442l-303 -442h303zM309 305q-67 0 -67 64q0 12 10 28l332 477q25 35 60 35q73 0 75 -59v-467h125q10 0 17 -9t7 -20v-14q0 -35 -24 -35h-125v-280q0 -25 -25 -25h-28q-27 0 -27 25v280h-330z" />
    <glyph glyph-name="one.numr" horiz-adv-x="784" 
d="M436 836v-807q0 -29 -24 -29h-35q-25 0 -25 27v792l-215 -170q-20 -16 -33 2l-14 19q-6 6 -6 14t12 18l223 185q29 25 62 24q55 -1 55 -75z" />
    <glyph glyph-name="three.numr" 
d="M588 1499q100 0 162 -67q61 -68 61 -170q0 -64 -34 -120t-101 -85q156 -47 155 -219q0 -123 -79 -185q-80 -61 -181 -61q-213 0 -254 196q-4 12 -4 18t13 7l49 2h6q2 0 6 -14q35 -135 184 -135q82 0 135 45q52 45 52 127t-51 132t-162 50h-76q-14 0 -15 3t-1 34
q10 33 18 35h70q98 0 147 47t49 123t-41 120t-127 45q-119 0 -139 -116q-2 -8 -10 -8h-64q-12 0 -6 22q11 70 74 122q64 52 164 52z" />
    <glyph glyph-name="nbspace" horiz-adv-x="1024" 
 />
  </font>
</defs>
</svg>
